# MagicaVoxel @ Ephtracy

# material
mtllib modern_glass_wall_m_corner.mtl
usemtl palette

# normals
vn -1 0 0
vn 1 0 0
vn 0 0 1
vn 0 0 -1
vn 0 -1 0
vn 0 1 0

# texcoords
vt 0.689453 0.5
vt 0.748047 0.5
vt 0.935547 0.5

# verts
v -32 0 -28
v -32 0 -30
v -32 64 -28
v -32 64 -30
v -31 0 -30
v -31 0 -31
v -31 64 -30
v -31 64 -31
v 28 0 32
v 28 0 31
v 28 64 32
v 28 64 31
v 29 0 31
v 29 0 -29
v 29 64 31
v 29 64 -29
v -31 0 -28
v -31 0 -29
v -31 64 -28
v -31 64 -29
v 30 0 32
v 30 0 31
v 30 64 32
v 30 64 31
v 31 0 31
v 31 0 30
v 31 0 -30
v 31 0 -31
v 31 64 31
v 31 64 30
v 31 64 -30
v 31 64 -31
v 28 0 32
v 28 64 32
v 30 0 32
v 30 64 32
v 30 0 31
v 30 64 31
v 31 0 31
v 31 64 31
v -32 0 -28
v -32 64 -28
v -31 0 -28
v -31 64 -28
v -31 0 -29
v -31 64 -29
v 29 0 -29
v 29 64 -29
v 28 0 31
v 28 64 31
v 29 0 31
v 29 64 31
v -32 0 -30
v -32 64 -30
v -31 0 -30
v -31 64 -30
v -31 0 -31
v -31 64 -31
v -30 0 -31
v -30 64 -31
v 30 0 -31
v 30 64 -31
v 31 0 -31
v 31 64 -31
v 28 0 32
v 30 0 32
v 28 0 31
v 29 0 31
v 30 0 31
v 31 0 31
v 30 0 30
v 31 0 30
v -32 0 -28
v -31 0 -28
v -31 0 -29
v 29 0 -29
v -32 0 -30
v -31 0 -30
v -30 0 -30
v 30 0 -30
v 31 0 -30
v -31 0 -31
v -30 0 -31
v 30 0 -31
v 31 0 -31
v 28 64 32
v 30 64 32
v 28 64 31
v 29 64 31
v 30 64 31
v 31 64 31
v 30 64 30
v 31 64 30
v -32 64 -28
v -31 64 -28
v -31 64 -29
v 29 64 -29
v -32 64 -30
v -31 64 -30
v -30 64 -30
v 30 64 -30
v 31 64 -30
v -31 64 -31
v -30 64 -31
v 30 64 -31
v 31 64 -31

# faces
f 3/3/1 2/3/1 1/3/1
f 4/3/1 2/3/1 3/3/1
f 7/2/1 6/2/1 5/2/1
f 8/2/1 6/2/1 7/2/1
f 11/3/1 10/3/1 9/3/1
f 12/3/1 10/3/1 11/3/1
f 15/1/1 14/1/1 13/1/1
f 16/1/1 14/1/1 15/1/1
f 17/3/2 18/3/2 19/3/2
f 19/3/2 18/3/2 20/3/2
f 21/3/2 22/3/2 23/3/2
f 23/3/2 22/3/2 24/3/2
f 25/2/2 26/2/2 29/2/2
f 26/1/2 27/1/2 30/1/2
f 29/2/2 26/2/2 30/2/2
f 27/2/2 28/2/2 31/2/2
f 30/1/2 27/1/2 31/1/2
f 31/2/2 28/2/2 32/2/2
f 35/3/3 34/3/3 33/3/3
f 36/3/3 34/3/3 35/3/3
f 39/2/3 38/2/3 37/2/3
f 40/2/3 38/2/3 39/2/3
f 43/3/3 42/3/3 41/3/3
f 44/3/3 42/3/3 43/3/3
f 47/1/3 46/1/3 45/1/3
f 48/1/3 46/1/3 47/1/3
f 49/3/4 50/3/4 51/3/4
f 51/3/4 50/3/4 52/3/4
f 53/3/4 54/3/4 55/3/4
f 55/3/4 54/3/4 56/3/4
f 57/2/4 58/2/4 59/2/4
f 59/2/4 58/2/4 60/2/4
f 59/1/4 60/1/4 61/1/4
f 61/1/4 60/1/4 62/1/4
f 61/2/4 62/2/4 63/2/4
f 63/2/4 62/2/4 64/2/4
f 67/3/5 66/3/5 65/3/5
f 68/3/5 66/3/5 67/3/5
f 69/3/5 66/3/5 68/3/5
f 71/2/5 70/2/5 69/2/5
f 71/1/5 69/1/5 68/1/5
f 72/2/5 70/2/5 71/2/5
f 75/3/5 74/3/5 73/3/5
f 76/1/5 71/1/5 68/1/5
f 76/1/5 72/1/5 71/1/5
f 77/3/5 75/3/5 73/3/5
f 78/1/5 76/1/5 75/1/5
f 78/3/5 75/3/5 77/3/5
f 79/1/5 76/1/5 78/1/5
f 80/1/5 72/1/5 76/1/5
f 80/1/5 76/1/5 79/1/5
f 81/1/5 72/1/5 80/1/5
f 82/2/5 79/2/5 78/2/5
f 83/1/5 80/1/5 79/1/5
f 83/2/5 79/2/5 82/2/5
f 84/2/5 81/2/5 80/2/5
f 84/1/5 80/1/5 83/1/5
f 85/2/5 81/2/5 84/2/5
f 86/3/6 87/3/6 88/3/6
f 88/3/6 87/3/6 89/3/6
f 89/3/6 87/3/6 90/3/6
f 90/2/6 91/2/6 92/2/6
f 89/1/6 90/1/6 92/1/6
f 92/2/6 91/2/6 93/2/6
f 94/3/6 95/3/6 96/3/6
f 89/1/6 92/1/6 97/1/6
f 92/1/6 93/1/6 97/1/6
f 94/3/6 96/3/6 98/3/6
f 96/1/6 97/1/6 99/1/6
f 98/3/6 96/3/6 99/3/6
f 99/1/6 97/1/6 100/1/6
f 97/1/6 93/1/6 101/1/6
f 100/1/6 97/1/6 101/1/6
f 101/1/6 93/1/6 102/1/6
f 99/2/6 100/2/6 103/2/6
f 100/1/6 101/1/6 104/1/6
f 103/2/6 100/2/6 104/2/6
f 101/2/6 102/2/6 105/2/6
f 104/1/6 101/1/6 105/1/6
f 105/2/6 102/2/6 106/2/6
