# MagicaVoxel @ Ephtracy

# material
mtllib speaker.mtl
usemtl palette

# normals
vn -1 0 0
vn 1 0 0
vn 0 0 1
vn 0 0 -1
vn 0 -1 0
vn 0 1 0

# texcoords
vt 0.951172 0.5
vt 0.982422 0.5
vt 0.986328 0.5
vt 0.990234 0.5
vt 0.994141 0.5

# verts
v -13 11 12
v -13 11 -12
v -13 64 12
v -13 64 -12
v -6 0 2
v -6 0 -2
v -6 1 2
v -6 1 -2
v -5 0 4
v -5 0 2
v -5 0 -2
v -5 0 -4
v -5 1 4
v -5 1 2
v -5 1 -2
v -5 1 -4
v -4 0 5
v -4 0 4
v -4 0 -4
v -4 0 -5
v -4 1 5
v -4 1 4
v -4 1 -4
v -4 1 -5
v -3 1 2
v -3 1 -2
v -3 2 2
v -3 2 -2
v -2 0 6
v -2 0 5
v -2 0 -5
v -2 0 -6
v -2 1 6
v -2 1 5
v -2 1 3
v -2 1 2
v -2 1 -2
v -2 1 -3
v -2 1 -5
v -2 1 -6
v -2 2 3
v -2 2 2
v -2 2 -2
v -2 2 -3
v -1 2 1
v -1 2 -1
v -1 11 1
v -1 11 -1
v 12 12 12
v 12 12 11
v 12 12 10
v 12 12 -11
v 12 63 12
v 12 63 11
v 12 63 10
v 12 63 -11
v -12 12 12
v -12 12 11
v -12 12 10
v -12 12 -11
v -12 63 12
v -12 63 11
v -12 63 10
v -12 63 -11
v 1 2 1
v 1 2 -1
v 1 11 1
v 1 11 -1
v 2 0 6
v 2 0 5
v 2 0 -5
v 2 0 -6
v 2 1 6
v 2 1 5
v 2 1 3
v 2 1 2
v 2 1 -2
v 2 1 -3
v 2 1 -5
v 2 1 -6
v 2 2 3
v 2 2 2
v 2 2 -2
v 2 2 -3
v 3 1 2
v 3 1 -2
v 3 2 2
v 3 2 -2
v 4 0 5
v 4 0 4
v 4 0 -4
v 4 0 -5
v 4 1 5
v 4 1 4
v 4 1 -4
v 4 1 -5
v 5 0 4
v 5 0 2
v 5 0 -2
v 5 0 -4
v 5 1 4
v 5 1 2
v 5 1 -2
v 5 1 -4
v 6 0 2
v 6 0 -2
v 6 1 2
v 6 1 -2
v 13 11 12
v 13 11 -12
v 13 64 12
v 13 64 -12
v -13 11 12
v -13 64 12
v -12 12 12
v -12 63 12
v 12 12 12
v 12 63 12
v 13 11 12
v 13 64 12
v -12 12 11
v -12 63 11
v -10 14 11
v -10 34 11
v -10 35 11
v -10 40 11
v -10 41 11
v -10 61 11
v -9 22 11
v -9 26 11
v -9 36 11
v -9 39 11
v -9 49 11
v -9 53 11
v -8 19 11
v -8 22 11
v -8 26 11
v -8 29 11
v -8 46 11
v -8 49 11
v -8 53 11
v -8 56 11
v -7 18 11
v -7 19 11
v -7 29 11
v -7 30 11
v -7 45 11
v -7 46 11
v -7 56 11
v -7 57 11
v -6 17 11
v -6 18 11
v -6 30 11
v -6 31 11
v -6 44 11
v -6 45 11
v -6 57 11
v -6 58 11
v -5 16 11
v -5 17 11
v -5 31 11
v -5 32 11
v -5 43 11
v -5 44 11
v -5 58 11
v -5 59 11
v -2 15 11
v -2 16 11
v -2 32 11
v -2 33 11
v -2 36 11
v -2 39 11
v -2 42 11
v -2 43 11
v -2 59 11
v -2 60 11
v -1 35 11
v -1 40 11
v 1 35 11
v 1 40 11
v 2 15 11
v 2 16 11
v 2 32 11
v 2 33 11
v 2 36 11
v 2 39 11
v 2 42 11
v 2 43 11
v 2 59 11
v 2 60 11
v 5 16 11
v 5 17 11
v 5 31 11
v 5 32 11
v 5 43 11
v 5 44 11
v 5 58 11
v 5 59 11
v 6 17 11
v 6 18 11
v 6 30 11
v 6 31 11
v 6 44 11
v 6 45 11
v 6 57 11
v 6 58 11
v 7 18 11
v 7 19 11
v 7 29 11
v 7 30 11
v 7 45 11
v 7 46 11
v 7 56 11
v 7 57 11
v 8 19 11
v 8 22 11
v 8 26 11
v 8 29 11
v 8 46 11
v 8 49 11
v 8 53 11
v 8 56 11
v 9 22 11
v 9 26 11
v 9 36 11
v 9 39 11
v 9 49 11
v 9 53 11
v 10 14 11
v 10 34 11
v 10 35 11
v 10 40 11
v 10 41 11
v 10 61 11
v 12 12 11
v 12 63 11
v -2 0 6
v -2 1 6
v 2 0 6
v 2 1 6
v -4 0 5
v -4 1 5
v -2 0 5
v -2 1 5
v 2 0 5
v 2 1 5
v 4 0 5
v 4 1 5
v -5 0 4
v -5 1 4
v -4 0 4
v -4 1 4
v 4 0 4
v 4 1 4
v 5 0 4
v 5 1 4
v -2 1 3
v -2 2 3
v 2 1 3
v 2 2 3
v -6 0 2
v -6 1 2
v -5 0 2
v -5 1 2
v -3 1 2
v -3 2 2
v -2 1 2
v -2 2 2
v 2 1 2
v 2 2 2
v 3 1 2
v 3 2 2
v 5 0 2
v 5 1 2
v 6 0 2
v 6 1 2
v -1 2 1
v -1 11 1
v 1 2 1
v 1 11 1
v -12 12 -11
v -12 63 -11
v 12 12 -11
v 12 63 -11
v -12 12 10
v -12 63 10
v -10 14 10
v -10 34 10
v -10 35 10
v -10 40 10
v -10 41 10
v -10 61 10
v -9 22 10
v -9 26 10
v -9 36 10
v -9 39 10
v -9 49 10
v -9 53 10
v -8 19 10
v -8 22 10
v -8 26 10
v -8 29 10
v -8 46 10
v -8 49 10
v -8 53 10
v -8 56 10
v -7 18 10
v -7 19 10
v -7 29 10
v -7 30 10
v -7 45 10
v -7 46 10
v -7 56 10
v -7 57 10
v -6 17 10
v -6 18 10
v -6 30 10
v -6 31 10
v -6 44 10
v -6 45 10
v -6 57 10
v -6 58 10
v -5 16 10
v -5 17 10
v -5 31 10
v -5 32 10
v -5 43 10
v -5 44 10
v -5 58 10
v -5 59 10
v -2 15 10
v -2 16 10
v -2 32 10
v -2 33 10
v -2 36 10
v -2 39 10
v -2 42 10
v -2 43 10
v -2 59 10
v -2 60 10
v -1 35 10
v -1 40 10
v 1 35 10
v 1 40 10
v 2 15 10
v 2 16 10
v 2 32 10
v 2 33 10
v 2 36 10
v 2 39 10
v 2 42 10
v 2 43 10
v 2 59 10
v 2 60 10
v 5 16 10
v 5 17 10
v 5 31 10
v 5 32 10
v 5 43 10
v 5 44 10
v 5 58 10
v 5 59 10
v 6 17 10
v 6 18 10
v 6 30 10
v 6 31 10
v 6 44 10
v 6 45 10
v 6 57 10
v 6 58 10
v 7 18 10
v 7 19 10
v 7 29 10
v 7 30 10
v 7 45 10
v 7 46 10
v 7 56 10
v 7 57 10
v 8 19 10
v 8 22 10
v 8 26 10
v 8 29 10
v 8 46 10
v 8 49 10
v 8 53 10
v 8 56 10
v 9 22 10
v 9 26 10
v 9 36 10
v 9 39 10
v 9 49 10
v 9 53 10
v 10 14 10
v 10 34 10
v 10 35 10
v 10 40 10
v 10 41 10
v 10 61 10
v 12 12 10
v 12 63 10
v -1 2 -1
v -1 11 -1
v 1 2 -1
v 1 11 -1
v -6 0 -2
v -6 1 -2
v -5 0 -2
v -5 1 -2
v -3 1 -2
v -3 2 -2
v -2 1 -2
v -2 2 -2
v 2 1 -2
v 2 2 -2
v 3 1 -2
v 3 2 -2
v 5 0 -2
v 5 1 -2
v 6 0 -2
v 6 1 -2
v -2 1 -3
v -2 2 -3
v 2 1 -3
v 2 2 -3
v -5 0 -4
v -5 1 -4
v -4 0 -4
v -4 1 -4
v 4 0 -4
v 4 1 -4
v 5 0 -4
v 5 1 -4
v -4 0 -5
v -4 1 -5
v -2 0 -5
v -2 1 -5
v 2 0 -5
v 2 1 -5
v 4 0 -5
v 4 1 -5
v -2 0 -6
v -2 1 -6
v 2 0 -6
v 2 1 -6
v -13 11 -12
v -13 64 -12
v 13 11 -12
v 13 64 -12
v -2 0 6
v 2 0 6
v -4 0 5
v -2 0 5
v 2 0 5
v 4 0 5
v -5 0 4
v -4 0 4
v 4 0 4
v 5 0 4
v -6 0 2
v -5 0 2
v 5 0 2
v 6 0 2
v -6 0 -2
v -5 0 -2
v 5 0 -2
v 6 0 -2
v -5 0 -4
v -4 0 -4
v 4 0 -4
v 5 0 -4
v -4 0 -5
v -2 0 -5
v 2 0 -5
v 4 0 -5
v -2 0 -6
v 2 0 -6
v -13 11 12
v 13 11 12
v -1 11 1
v 1 11 1
v -1 11 -1
v 1 11 -1
v -13 11 -12
v 13 11 -12
v -12 63 12
v 12 63 12
v -12 63 11
v 12 63 11
v -12 63 10
v 12 63 10
v -12 63 -11
v 12 63 -11
v -2 1 6
v 2 1 6
v -4 1 5
v -2 1 5
v 2 1 5
v 4 1 5
v -5 1 4
v -4 1 4
v 4 1 4
v 5 1 4
v -2 1 3
v 2 1 3
v -6 1 2
v -5 1 2
v -3 1 2
v -2 1 2
v 2 1 2
v 3 1 2
v 5 1 2
v 6 1 2
v -6 1 -2
v -5 1 -2
v -3 1 -2
v -2 1 -2
v 2 1 -2
v 3 1 -2
v 5 1 -2
v 6 1 -2
v -2 1 -3
v 2 1 -3
v -5 1 -4
v -4 1 -4
v 4 1 -4
v 5 1 -4
v -4 1 -5
v -2 1 -5
v 2 1 -5
v 4 1 -5
v -2 1 -6
v 2 1 -6
v -2 2 3
v 2 2 3
v -3 2 2
v -2 2 2
v 2 2 2
v 3 2 2
v -1 2 1
v 1 2 1
v -1 2 -1
v 1 2 -1
v -3 2 -2
v -2 2 -2
v 2 2 -2
v 3 2 -2
v -2 2 -3
v 2 2 -3
v -12 12 12
v 12 12 12
v -12 12 11
v 12 12 11
v -12 12 10
v 12 12 10
v -12 12 -11
v 12 12 -11
v -13 64 12
v 13 64 12
v -13 64 -12
v 13 64 -12

# faces
f 3/3/1 2/3/1 1/3/1
f 4/3/1 2/3/1 3/3/1
f 7/1/1 6/1/1 5/1/1
f 8/1/1 6/1/1 7/1/1
f 13/1/1 10/1/1 9/1/1
f 14/1/1 10/1/1 13/1/1
f 15/1/1 12/1/1 11/1/1
f 16/1/1 12/1/1 15/1/1
f 21/1/1 18/1/1 17/1/1
f 22/1/1 18/1/1 21/1/1
f 23/1/1 20/1/1 19/1/1
f 24/1/1 20/1/1 23/1/1
f 27/1/1 26/1/1 25/1/1
f 28/1/1 26/1/1 27/1/1
f 33/1/1 30/1/1 29/1/1
f 34/1/1 30/1/1 33/1/1
f 39/1/1 32/1/1 31/1/1
f 40/1/1 32/1/1 39/1/1
f 41/1/1 36/1/1 35/1/1
f 42/1/1 36/1/1 41/1/1
f 43/1/1 38/1/1 37/1/1
f 44/1/1 38/1/1 43/1/1
f 47/1/1 46/1/1 45/1/1
f 48/1/1 46/1/1 47/1/1
f 53/3/1 50/3/1 49/3/1
f 54/3/1 50/3/1 53/3/1
f 55/3/1 52/3/1 51/3/1
f 56/3/1 52/3/1 55/3/1
f 57/3/2 58/3/2 61/3/2
f 61/3/2 58/3/2 62/3/2
f 59/3/2 60/3/2 63/3/2
f 63/3/2 60/3/2 64/3/2
f 65/1/2 66/1/2 67/1/2
f 67/1/2 66/1/2 68/1/2
f 69/1/2 70/1/2 73/1/2
f 73/1/2 70/1/2 74/1/2
f 71/1/2 72/1/2 79/1/2
f 79/1/2 72/1/2 80/1/2
f 75/1/2 76/1/2 81/1/2
f 81/1/2 76/1/2 82/1/2
f 77/1/2 78/1/2 83/1/2
f 83/1/2 78/1/2 84/1/2
f 85/1/2 86/1/2 87/1/2
f 87/1/2 86/1/2 88/1/2
f 89/1/2 90/1/2 93/1/2
f 93/1/2 90/1/2 94/1/2
f 91/1/2 92/1/2 95/1/2
f 95/1/2 92/1/2 96/1/2
f 97/1/2 98/1/2 101/1/2
f 101/1/2 98/1/2 102/1/2
f 99/1/2 100/1/2 103/1/2
f 103/1/2 100/1/2 104/1/2
f 105/1/2 106/1/2 107/1/2
f 107/1/2 106/1/2 108/1/2
f 109/3/2 110/3/2 111/3/2
f 111/3/2 110/3/2 112/3/2
f 115/3/3 114/3/3 113/3/3
f 116/3/3 114/3/3 115/3/3
f 117/3/3 115/3/3 113/3/3
f 118/3/3 114/3/3 116/3/3
f 119/3/3 117/3/3 113/3/3
f 119/3/3 118/3/3 117/3/3
f 120/3/3 114/3/3 118/3/3
f 120/3/3 118/3/3 119/3/3
f 123/2/3 122/2/3 121/2/3
f 124/2/3 122/2/3 123/2/3
f 125/2/3 122/2/3 124/2/3
f 126/2/3 122/2/3 125/2/3
f 127/2/3 122/2/3 126/2/3
f 128/2/3 122/2/3 127/2/3
f 129/4/3 124/4/3 123/4/3
f 130/4/3 124/4/3 129/4/3
f 131/4/3 126/4/3 125/4/3
f 132/4/3 126/4/3 131/4/3
f 133/4/3 128/4/3 127/4/3
f 134/4/3 128/4/3 133/4/3
f 135/4/3 129/4/3 123/4/3
f 136/5/3 130/5/3 129/5/3
f 136/4/3 129/4/3 135/4/3
f 137/4/3 124/4/3 130/4/3
f 137/5/3 130/5/3 136/5/3
f 138/4/3 124/4/3 137/4/3
f 139/4/3 133/4/3 127/4/3
f 140/5/3 134/5/3 133/5/3
f 140/4/3 133/4/3 139/4/3
f 141/4/3 128/4/3 134/4/3
f 141/5/3 134/5/3 140/5/3
f 142/4/3 128/4/3 141/4/3
f 143/4/3 135/4/3 123/4/3
f 144/5/3 136/5/3 135/5/3
f 144/4/3 135/4/3 143/4/3
f 144/5/3 137/5/3 136/5/3
f 144/5/3 138/5/3 137/5/3
f 145/4/3 124/4/3 138/4/3
f 145/5/3 138/5/3 144/5/3
f 146/4/3 124/4/3 145/4/3
f 147/4/3 139/4/3 127/4/3
f 148/5/3 140/5/3 139/5/3
f 148/4/3 139/4/3 147/4/3
f 148/5/3 142/5/3 141/5/3
f 148/5/3 141/5/3 140/5/3
f 149/4/3 128/4/3 142/4/3
f 149/5/3 142/5/3 148/5/3
f 150/4/3 128/4/3 149/4/3
f 151/4/3 143/4/3 123/4/3
f 152/5/3 144/5/3 143/5/3
f 152/4/3 143/4/3 151/4/3
f 152/5/3 146/5/3 145/5/3
f 152/5/3 145/5/3 144/5/3
f 153/4/3 124/4/3 146/4/3
f 153/5/3 146/5/3 152/5/3
f 154/4/3 124/4/3 153/4/3
f 155/4/3 147/4/3 127/4/3
f 156/5/3 148/5/3 147/5/3
f 156/4/3 147/4/3 155/4/3
f 156/5/3 150/5/3 149/5/3
f 156/5/3 149/5/3 148/5/3
f 157/4/3 128/4/3 150/4/3
f 157/5/3 150/5/3 156/5/3
f 158/4/3 128/4/3 157/4/3
f 159/4/3 151/4/3 123/4/3
f 160/5/3 152/5/3 151/5/3
f 160/4/3 151/4/3 159/4/3
f 160/5/3 154/5/3 153/5/3
f 160/5/3 153/5/3 152/5/3
f 161/4/3 124/4/3 154/4/3
f 161/5/3 154/5/3 160/5/3
f 162/4/3 124/4/3 161/4/3
f 163/4/3 155/4/3 127/4/3
f 164/5/3 156/5/3 155/5/3
f 164/4/3 155/4/3 163/4/3
f 164/5/3 158/5/3 157/5/3
f 164/5/3 157/5/3 156/5/3
f 165/4/3 128/4/3 158/4/3
f 165/5/3 158/5/3 164/5/3
f 166/4/3 128/4/3 165/4/3
f 167/4/3 159/4/3 123/4/3
f 168/5/3 160/5/3 159/5/3
f 168/4/3 159/4/3 167/4/3
f 168/5/3 162/5/3 161/5/3
f 168/5/3 161/5/3 160/5/3
f 169/4/3 124/4/3 162/4/3
f 169/5/3 162/5/3 168/5/3
f 170/4/3 124/4/3 169/4/3
f 171/4/3 131/4/3 125/4/3
f 171/5/3 132/5/3 131/5/3
f 172/4/3 126/4/3 132/4/3
f 172/5/3 132/5/3 171/5/3
f 173/4/3 163/4/3 127/4/3
f 174/5/3 164/5/3 163/5/3
f 174/4/3 163/4/3 173/4/3
f 174/5/3 166/5/3 165/5/3
f 174/5/3 165/5/3 164/5/3
f 175/4/3 128/4/3 166/4/3
f 175/5/3 166/5/3 174/5/3
f 176/4/3 128/4/3 175/4/3
f 177/2/3 125/2/3 124/2/3
f 177/4/3 171/4/3 125/4/3
f 177/4/3 172/4/3 171/4/3
f 178/4/3 126/4/3 172/4/3
f 178/4/3 172/4/3 177/4/3
f 178/2/3 127/2/3 126/2/3
f 179/2/3 177/2/3 124/2/3
f 179/2/3 178/2/3 177/2/3
f 180/2/3 127/2/3 178/2/3
f 180/2/3 178/2/3 179/2/3
f 181/5/3 169/5/3 168/5/3
f 181/4/3 167/4/3 123/4/3
f 181/5/3 168/5/3 167/5/3
f 181/5/3 170/5/3 169/5/3
f 182/5/3 170/5/3 181/5/3
f 183/5/3 170/5/3 182/5/3
f 184/4/3 124/4/3 170/4/3
f 184/5/3 170/5/3 183/5/3
f 185/4/3 180/4/3 179/4/3
f 186/4/3 180/4/3 185/4/3
f 187/5/3 176/5/3 175/5/3
f 187/5/3 175/5/3 174/5/3
f 187/5/3 174/5/3 173/5/3
f 187/4/3 173/4/3 127/4/3
f 188/5/3 176/5/3 187/5/3
f 189/5/3 176/5/3 188/5/3
f 190/4/3 128/4/3 176/4/3
f 190/5/3 176/5/3 189/5/3
f 191/5/3 183/5/3 182/5/3
f 191/4/3 182/4/3 181/4/3
f 192/5/3 183/5/3 191/5/3
f 193/5/3 183/5/3 192/5/3
f 194/4/3 184/4/3 183/4/3
f 194/5/3 183/5/3 193/5/3
f 195/5/3 189/5/3 188/5/3
f 195/4/3 188/4/3 187/4/3
f 196/5/3 189/5/3 195/5/3
f 197/5/3 189/5/3 196/5/3
f 198/4/3 190/4/3 189/4/3
f 198/5/3 189/5/3 197/5/3
f 199/5/3 193/5/3 192/5/3
f 199/4/3 192/4/3 191/4/3
f 200/5/3 193/5/3 199/5/3
f 201/5/3 193/5/3 200/5/3
f 202/4/3 194/4/3 193/4/3
f 202/5/3 193/5/3 201/5/3
f 203/5/3 197/5/3 196/5/3
f 203/4/3 196/4/3 195/4/3
f 204/5/3 197/5/3 203/5/3
f 205/5/3 197/5/3 204/5/3
f 206/4/3 198/4/3 197/4/3
f 206/5/3 197/5/3 205/5/3
f 207/5/3 201/5/3 200/5/3
f 207/4/3 200/4/3 199/4/3
f 208/5/3 201/5/3 207/5/3
f 209/5/3 201/5/3 208/5/3
f 210/4/3 202/4/3 201/4/3
f 210/5/3 201/5/3 209/5/3
f 211/5/3 205/5/3 204/5/3
f 211/4/3 204/4/3 203/4/3
f 212/5/3 205/5/3 211/5/3
f 213/5/3 205/5/3 212/5/3
f 214/4/3 206/4/3 205/4/3
f 214/5/3 205/5/3 213/5/3
f 215/5/3 209/5/3 208/5/3
f 215/4/3 208/4/3 207/4/3
f 216/5/3 209/5/3 215/5/3
f 217/5/3 209/5/3 216/5/3
f 218/4/3 210/4/3 209/4/3
f 218/5/3 209/5/3 217/5/3
f 219/5/3 213/5/3 212/5/3
f 219/4/3 212/4/3 211/4/3
f 220/5/3 213/5/3 219/5/3
f 221/5/3 213/5/3 220/5/3
f 222/4/3 214/4/3 213/4/3
f 222/5/3 213/5/3 221/5/3
f 223/5/3 217/5/3 216/5/3
f 223/4/3 216/4/3 215/4/3
f 224/4/3 218/4/3 217/4/3
f 224/5/3 217/5/3 223/5/3
f 225/5/3 186/5/3 185/5/3
f 225/4/3 185/4/3 179/4/3
f 226/4/3 180/4/3 186/4/3
f 226/5/3 186/5/3 225/5/3
f 227/5/3 221/5/3 220/5/3
f 227/4/3 220/4/3 219/4/3
f 228/4/3 222/4/3 221/4/3
f 228/5/3 221/5/3 227/5/3
f 229/2/3 123/2/3 121/2/3
f 229/4/3 224/4/3 223/4/3
f 229/4/3 181/4/3 123/4/3
f 229/4/3 191/4/3 181/4/3
f 229/4/3 199/4/3 191/4/3
f 229/4/3 207/4/3 199/4/3
f 229/4/3 215/4/3 207/4/3
f 229/4/3 223/4/3 215/4/3
f 230/4/3 184/4/3 194/4/3
f 230/4/3 224/4/3 229/4/3
f 230/2/3 179/2/3 124/2/3
f 230/4/3 124/4/3 184/4/3
f 230/4/3 218/4/3 224/4/3
f 230/4/3 194/4/3 202/4/3
f 230/4/3 202/4/3 210/4/3
f 230/4/3 210/4/3 218/4/3
f 231/4/3 225/4/3 179/4/3
f 231/2/3 179/2/3 230/2/3
f 231/4/3 226/4/3 225/4/3
f 232/4/3 180/4/3 226/4/3
f 232/4/3 226/4/3 231/4/3
f 232/2/3 127/2/3 180/2/3
f 233/4/3 195/4/3 187/4/3
f 233/2/3 127/2/3 232/2/3
f 233/4/3 211/4/3 203/4/3
f 233/4/3 227/4/3 219/4/3
f 233/4/3 219/4/3 211/4/3
f 233/4/3 228/4/3 227/4/3
f 233/4/3 187/4/3 127/4/3
f 233/4/3 203/4/3 195/4/3
f 234/4/3 222/4/3 228/4/3
f 234/4/3 228/4/3 233/4/3
f 234/2/3 122/2/3 128/2/3
f 234/4/3 190/4/3 198/4/3
f 234/4/3 206/4/3 214/4/3
f 234/4/3 128/4/3 190/4/3
f 234/4/3 214/4/3 222/4/3
f 234/4/3 198/4/3 206/4/3
f 235/2/3 233/2/3 232/2/3
f 235/2/3 230/2/3 229/2/3
f 235/2/3 234/2/3 233/2/3
f 235/2/3 232/2/3 231/2/3
f 235/2/3 231/2/3 230/2/3
f 235/2/3 229/2/3 121/2/3
f 236/2/3 122/2/3 234/2/3
f 236/2/3 234/2/3 235/2/3
f 239/1/3 238/1/3 237/1/3
f 240/1/3 238/1/3 239/1/3
f 243/1/3 242/1/3 241/1/3
f 244/1/3 242/1/3 243/1/3
f 247/1/3 246/1/3 245/1/3
f 248/1/3 246/1/3 247/1/3
f 251/1/3 250/1/3 249/1/3
f 252/1/3 250/1/3 251/1/3
f 255/1/3 254/1/3 253/1/3
f 256/1/3 254/1/3 255/1/3
f 259/1/3 258/1/3 257/1/3
f 260/1/3 258/1/3 259/1/3
f 263/1/3 262/1/3 261/1/3
f 264/1/3 262/1/3 263/1/3
f 267/1/3 266/1/3 265/1/3
f 268/1/3 266/1/3 267/1/3
f 271/1/3 270/1/3 269/1/3
f 272/1/3 270/1/3 271/1/3
f 275/1/3 274/1/3 273/1/3
f 276/1/3 274/1/3 275/1/3
f 279/1/3 278/1/3 277/1/3
f 280/1/3 278/1/3 279/1/3
f 283/3/3 282/3/3 281/3/3
f 284/3/3 282/3/3 283/3/3
f 285/2/4 286/2/4 287/2/4
f 287/2/4 286/2/4 288/2/4
f 288/2/4 286/2/4 289/2/4
f 289/2/4 286/2/4 290/2/4
f 290/2/4 286/2/4 291/2/4
f 291/2/4 286/2/4 292/2/4
f 287/4/4 288/4/4 293/4/4
f 293/4/4 288/4/4 294/4/4
f 289/4/4 290/4/4 295/4/4
f 295/4/4 290/4/4 296/4/4
f 291/4/4 292/4/4 297/4/4
f 297/4/4 292/4/4 298/4/4
f 287/4/4 293/4/4 299/4/4
f 293/5/4 294/5/4 300/5/4
f 299/4/4 293/4/4 300/4/4
f 294/4/4 288/4/4 301/4/4
f 300/5/4 294/5/4 301/5/4
f 301/4/4 288/4/4 302/4/4
f 291/4/4 297/4/4 303/4/4
f 297/5/4 298/5/4 304/5/4
f 303/4/4 297/4/4 304/4/4
f 298/4/4 292/4/4 305/4/4
f 304/5/4 298/5/4 305/5/4
f 305/4/4 292/4/4 306/4/4
f 287/4/4 299/4/4 307/4/4
f 299/5/4 300/5/4 308/5/4
f 307/4/4 299/4/4 308/4/4
f 300/5/4 301/5/4 308/5/4
f 301/5/4 302/5/4 308/5/4
f 302/4/4 288/4/4 309/4/4
f 308/5/4 302/5/4 309/5/4
f 309/4/4 288/4/4 310/4/4
f 291/4/4 303/4/4 311/4/4
f 303/5/4 304/5/4 312/5/4
f 311/4/4 303/4/4 312/4/4
f 305/5/4 306/5/4 312/5/4
f 304/5/4 305/5/4 312/5/4
f 306/4/4 292/4/4 313/4/4
f 312/5/4 306/5/4 313/5/4
f 313/4/4 292/4/4 314/4/4
f 287/4/4 307/4/4 315/4/4
f 307/5/4 308/5/4 316/5/4
f 315/4/4 307/4/4 316/4/4
f 309/5/4 310/5/4 316/5/4
f 308/5/4 309/5/4 316/5/4
f 310/4/4 288/4/4 317/4/4
f 316/5/4 310/5/4 317/5/4
f 317/4/4 288/4/4 318/4/4
f 291/4/4 311/4/4 319/4/4
f 311/5/4 312/5/4 320/5/4
f 319/4/4 311/4/4 320/4/4
f 313/5/4 314/5/4 320/5/4
f 312/5/4 313/5/4 320/5/4
f 314/4/4 292/4/4 321/4/4
f 320/5/4 314/5/4 321/5/4
f 321/4/4 292/4/4 322/4/4
f 287/4/4 315/4/4 323/4/4
f 315/5/4 316/5/4 324/5/4
f 323/4/4 315/4/4 324/4/4
f 317/5/4 318/5/4 324/5/4
f 316/5/4 317/5/4 324/5/4
f 318/4/4 288/4/4 325/4/4
f 324/5/4 318/5/4 325/5/4
f 325/4/4 288/4/4 326/4/4
f 291/4/4 319/4/4 327/4/4
f 319/5/4 320/5/4 328/5/4
f 327/4/4 319/4/4 328/4/4
f 321/5/4 322/5/4 328/5/4
f 320/5/4 321/5/4 328/5/4
f 322/4/4 292/4/4 329/4/4
f 328/5/4 322/5/4 329/5/4
f 329/4/4 292/4/4 330/4/4
f 287/4/4 323/4/4 331/4/4
f 323/5/4 324/5/4 332/5/4
f 331/4/4 323/4/4 332/4/4
f 325/5/4 326/5/4 332/5/4
f 324/5/4 325/5/4 332/5/4
f 326/4/4 288/4/4 333/4/4
f 332/5/4 326/5/4 333/5/4
f 333/4/4 288/4/4 334/4/4
f 289/4/4 295/4/4 335/4/4
f 295/5/4 296/5/4 335/5/4
f 296/4/4 290/4/4 336/4/4
f 335/5/4 296/5/4 336/5/4
f 291/4/4 327/4/4 337/4/4
f 327/5/4 328/5/4 338/5/4
f 337/4/4 327/4/4 338/4/4
f 329/5/4 330/5/4 338/5/4
f 328/5/4 329/5/4 338/5/4
f 330/4/4 292/4/4 339/4/4
f 338/5/4 330/5/4 339/5/4
f 339/4/4 292/4/4 340/4/4
f 288/2/4 289/2/4 341/2/4
f 289/4/4 335/4/4 341/4/4
f 335/4/4 336/4/4 341/4/4
f 336/4/4 290/4/4 342/4/4
f 341/4/4 336/4/4 342/4/4
f 290/2/4 291/2/4 342/2/4
f 288/2/4 341/2/4 343/2/4
f 341/2/4 342/2/4 343/2/4
f 342/2/4 291/2/4 344/2/4
f 343/2/4 342/2/4 344/2/4
f 332/5/4 333/5/4 345/5/4
f 287/4/4 331/4/4 345/4/4
f 331/5/4 332/5/4 345/5/4
f 333/5/4 334/5/4 345/5/4
f 345/5/4 334/5/4 346/5/4
f 346/5/4 334/5/4 347/5/4
f 334/4/4 288/4/4 348/4/4
f 347/5/4 334/5/4 348/5/4
f 343/4/4 344/4/4 349/4/4
f 349/4/4 344/4/4 350/4/4
f 339/5/4 340/5/4 351/5/4
f 338/5/4 339/5/4 351/5/4
f 337/5/4 338/5/4 351/5/4
f 291/4/4 337/4/4 351/4/4
f 351/5/4 340/5/4 352/5/4
f 352/5/4 340/5/4 353/5/4
f 340/4/4 292/4/4 354/4/4
f 353/5/4 340/5/4 354/5/4
f 346/5/4 347/5/4 355/5/4
f 345/4/4 346/4/4 355/4/4
f 355/5/4 347/5/4 356/5/4
f 356/5/4 347/5/4 357/5/4
f 347/4/4 348/4/4 358/4/4
f 357/5/4 347/5/4 358/5/4
f 352/5/4 353/5/4 359/5/4
f 351/4/4 352/4/4 359/4/4
f 359/5/4 353/5/4 360/5/4
f 360/5/4 353/5/4 361/5/4
f 353/4/4 354/4/4 362/4/4
f 361/5/4 353/5/4 362/5/4
f 356/5/4 357/5/4 363/5/4
f 355/4/4 356/4/4 363/4/4
f 363/5/4 357/5/4 364/5/4
f 364/5/4 357/5/4 365/5/4
f 357/4/4 358/4/4 366/4/4
f 365/5/4 357/5/4 366/5/4
f 360/5/4 361/5/4 367/5/4
f 359/4/4 360/4/4 367/4/4
f 367/5/4 361/5/4 368/5/4
f 368/5/4 361/5/4 369/5/4
f 361/4/4 362/4/4 370/4/4
f 369/5/4 361/5/4 370/5/4
f 364/5/4 365/5/4 371/5/4
f 363/4/4 364/4/4 371/4/4
f 371/5/4 365/5/4 372/5/4
f 372/5/4 365/5/4 373/5/4
f 365/4/4 366/4/4 374/4/4
f 373/5/4 365/5/4 374/5/4
f 368/5/4 369/5/4 375/5/4
f 367/4/4 368/4/4 375/4/4
f 375/5/4 369/5/4 376/5/4
f 376/5/4 369/5/4 377/5/4
f 369/4/4 370/4/4 378/4/4
f 377/5/4 369/5/4 378/5/4
f 372/5/4 373/5/4 379/5/4
f 371/4/4 372/4/4 379/4/4
f 379/5/4 373/5/4 380/5/4
f 380/5/4 373/5/4 381/5/4
f 373/4/4 374/4/4 382/4/4
f 381/5/4 373/5/4 382/5/4
f 376/5/4 377/5/4 383/5/4
f 375/4/4 376/4/4 383/4/4
f 383/5/4 377/5/4 384/5/4
f 384/5/4 377/5/4 385/5/4
f 377/4/4 378/4/4 386/4/4
f 385/5/4 377/5/4 386/5/4
f 380/5/4 381/5/4 387/5/4
f 379/4/4 380/4/4 387/4/4
f 381/4/4 382/4/4 388/4/4
f 387/5/4 381/5/4 388/5/4
f 349/5/4 350/5/4 389/5/4
f 343/4/4 349/4/4 389/4/4
f 350/4/4 344/4/4 390/4/4
f 389/5/4 350/5/4 390/5/4
f 384/5/4 385/5/4 391/5/4
f 383/4/4 384/4/4 391/4/4
f 385/4/4 386/4/4 392/4/4
f 391/5/4 385/5/4 392/5/4
f 285/2/4 287/2/4 393/2/4
f 387/4/4 388/4/4 393/4/4
f 287/4/4 345/4/4 393/4/4
f 345/4/4 355/4/4 393/4/4
f 355/4/4 363/4/4 393/4/4
f 363/4/4 371/4/4 393/4/4
f 371/4/4 379/4/4 393/4/4
f 379/4/4 387/4/4 393/4/4
f 358/4/4 348/4/4 394/4/4
f 393/4/4 388/4/4 394/4/4
f 288/2/4 343/2/4 394/2/4
f 348/4/4 288/4/4 394/4/4
f 388/4/4 382/4/4 394/4/4
f 366/4/4 358/4/4 394/4/4
f 374/4/4 366/4/4 394/4/4
f 382/4/4 374/4/4 394/4/4
f 343/4/4 389/4/4 395/4/4
f 394/2/4 343/2/4 395/2/4
f 389/4/4 390/4/4 395/4/4
f 390/4/4 344/4/4 396/4/4
f 395/4/4 390/4/4 396/4/4
f 344/2/4 291/2/4 396/2/4
f 351/4/4 359/4/4 397/4/4
f 396/2/4 291/2/4 397/2/4
f 367/4/4 375/4/4 397/4/4
f 383/4/4 391/4/4 397/4/4
f 375/4/4 383/4/4 397/4/4
f 391/4/4 392/4/4 397/4/4
f 291/4/4 351/4/4 397/4/4
f 359/4/4 367/4/4 397/4/4
f 392/4/4 386/4/4 398/4/4
f 397/4/4 392/4/4 398/4/4
f 292/2/4 286/2/4 398/2/4
f 362/4/4 354/4/4 398/4/4
f 378/4/4 370/4/4 398/4/4
f 354/4/4 292/4/4 398/4/4
f 386/4/4 378/4/4 398/4/4
f 370/4/4 362/4/4 398/4/4
f 396/2/4 397/2/4 399/2/4
f 393/2/4 394/2/4 399/2/4
f 397/2/4 398/2/4 399/2/4
f 395/2/4 396/2/4 399/2/4
f 394/2/4 395/2/4 399/2/4
f 285/2/4 393/2/4 399/2/4
f 398/2/4 286/2/4 400/2/4
f 399/2/4 398/2/4 400/2/4
f 401/1/4 402/1/4 403/1/4
f 403/1/4 402/1/4 404/1/4
f 405/1/4 406/1/4 407/1/4
f 407/1/4 406/1/4 408/1/4
f 409/1/4 410/1/4 411/1/4
f 411/1/4 410/1/4 412/1/4
f 413/1/4 414/1/4 415/1/4
f 415/1/4 414/1/4 416/1/4
f 417/1/4 418/1/4 419/1/4
f 419/1/4 418/1/4 420/1/4
f 421/1/4 422/1/4 423/1/4
f 423/1/4 422/1/4 424/1/4
f 425/1/4 426/1/4 427/1/4
f 427/1/4 426/1/4 428/1/4
f 429/1/4 430/1/4 431/1/4
f 431/1/4 430/1/4 432/1/4
f 433/1/4 434/1/4 435/1/4
f 435/1/4 434/1/4 436/1/4
f 437/1/4 438/1/4 439/1/4
f 439/1/4 438/1/4 440/1/4
f 441/1/4 442/1/4 443/1/4
f 443/1/4 442/1/4 444/1/4
f 445/3/4 446/3/4 447/3/4
f 447/3/4 446/3/4 448/3/4
f 452/1/5 450/1/5 449/1/5
f 453/1/5 450/1/5 452/1/5
f 456/1/5 452/1/5 451/1/5
f 456/1/5 454/1/5 453/1/5
f 456/1/5 453/1/5 452/1/5
f 457/1/5 454/1/5 456/1/5
f 460/1/5 456/1/5 455/1/5
f 460/1/5 458/1/5 457/1/5
f 460/1/5 457/1/5 456/1/5
f 461/1/5 458/1/5 460/1/5
f 463/1/5 460/1/5 459/1/5
f 463/1/5 462/1/5 461/1/5
f 463/1/5 461/1/5 460/1/5
f 464/1/5 462/1/5 463/1/5
f 465/1/5 462/1/5 464/1/5
f 466/1/5 462/1/5 465/1/5
f 467/1/5 465/1/5 464/1/5
f 468/1/5 465/1/5 467/1/5
f 469/1/5 465/1/5 468/1/5
f 470/1/5 465/1/5 469/1/5
f 471/1/5 469/1/5 468/1/5
f 472/1/5 469/1/5 471/1/5
f 473/1/5 469/1/5 472/1/5
f 474/1/5 469/1/5 473/1/5
f 475/1/5 473/1/5 472/1/5
f 476/1/5 473/1/5 475/1/5
f 479/3/5 478/3/5 477/3/5
f 480/3/5 478/3/5 479/3/5
f 481/3/5 479/3/5 477/3/5
f 482/3/5 478/3/5 480/3/5
f 483/3/5 481/3/5 477/3/5
f 483/3/5 482/3/5 481/3/5
f 484/3/5 478/3/5 482/3/5
f 484/3/5 482/3/5 483/3/5
f 487/3/5 486/3/5 485/3/5
f 488/3/5 486/3/5 487/3/5
f 491/3/5 490/3/5 489/3/5
f 492/3/5 490/3/5 491/3/5
f 493/1/6 494/1/6 496/1/6
f 496/1/6 494/1/6 497/1/6
f 495/1/6 496/1/6 500/1/6
f 497/1/6 498/1/6 500/1/6
f 496/1/6 497/1/6 500/1/6
f 500/1/6 498/1/6 501/1/6
f 499/1/6 500/1/6 503/1/6
f 501/1/6 502/1/6 503/1/6
f 500/1/6 501/1/6 503/1/6
f 503/1/6 502/1/6 504/1/6
f 499/1/6 503/1/6 506/1/6
f 506/1/6 503/1/6 507/1/6
f 507/1/6 503/1/6 508/1/6
f 504/1/6 502/1/6 509/1/6
f 509/1/6 502/1/6 510/1/6
f 510/1/6 502/1/6 511/1/6
f 505/1/6 506/1/6 513/1/6
f 506/1/6 507/1/6 513/1/6
f 513/1/6 507/1/6 514/1/6
f 514/1/6 507/1/6 515/1/6
f 511/1/6 512/1/6 518/1/6
f 510/1/6 511/1/6 518/1/6
f 518/1/6 512/1/6 519/1/6
f 519/1/6 512/1/6 520/1/6
f 515/1/6 516/1/6 521/1/6
f 514/1/6 515/1/6 521/1/6
f 518/1/6 519/1/6 522/1/6
f 517/1/6 518/1/6 522/1/6
f 514/1/6 521/1/6 523/1/6
f 521/1/6 522/1/6 523/1/6
f 523/1/6 522/1/6 524/1/6
f 522/1/6 519/1/6 525/1/6
f 524/1/6 522/1/6 525/1/6
f 525/1/6 519/1/6 526/1/6
f 524/1/6 525/1/6 527/1/6
f 527/1/6 525/1/6 528/1/6
f 528/1/6 525/1/6 529/1/6
f 529/1/6 525/1/6 530/1/6
f 528/1/6 529/1/6 531/1/6
f 531/1/6 529/1/6 532/1/6
f 533/1/6 534/1/6 536/1/6
f 536/1/6 534/1/6 537/1/6
f 535/1/6 536/1/6 539/1/6
f 537/1/6 538/1/6 539/1/6
f 536/1/6 537/1/6 539/1/6
f 539/1/6 538/1/6 540/1/6
f 535/1/6 539/1/6 541/1/6
f 540/1/6 538/1/6 542/1/6
f 535/1/6 541/1/6 543/1/6
f 541/1/6 542/1/6 543/1/6
f 543/1/6 542/1/6 544/1/6
f 542/1/6 538/1/6 545/1/6
f 544/1/6 542/1/6 545/1/6
f 545/1/6 538/1/6 546/1/6
f 544/1/6 545/1/6 547/1/6
f 547/1/6 545/1/6 548/1/6
f 549/3/6 550/3/6 551/3/6
f 551/3/6 550/3/6 552/3/6
f 553/3/6 554/3/6 555/3/6
f 555/3/6 554/3/6 556/3/6
f 557/3/6 558/3/6 559/3/6
f 559/3/6 558/3/6 560/3/6
