# MagicaVoxel @ Ephtracy

# material
mtllib speaker_n.mtl
usemtl palette

# normals
vn -1 0 0
vn 1 0 0
vn 0 0 1
vn 0 0 -1
vn 0 -1 0
vn 0 1 0

# texcoords
vt 0.982422 0.5
vt 0.986328 0.5
vt 0.990234 0.5
vt 0.994141 0.5

# verts
v -13 0 12
v -13 0 -12
v -13 53 12
v -13 53 -12
v 12 1 12
v 12 1 11
v 12 1 10
v 12 1 -11
v 12 52 12
v 12 52 11
v 12 52 10
v 12 52 -11
v -12 1 12
v -12 1 11
v -12 1 10
v -12 1 -11
v -12 52 12
v -12 52 11
v -12 52 10
v -12 52 -11
v 13 0 12
v 13 0 -12
v 13 53 12
v 13 53 -12
v -13 0 12
v -13 53 12
v -12 1 12
v -12 52 12
v 12 1 12
v 12 52 12
v 13 0 12
v 13 53 12
v -12 1 11
v -12 52 11
v -10 3 11
v -10 23 11
v -10 24 11
v -10 29 11
v -10 30 11
v -10 50 11
v -9 11 11
v -9 15 11
v -9 25 11
v -9 28 11
v -9 38 11
v -9 42 11
v -8 8 11
v -8 11 11
v -8 15 11
v -8 18 11
v -8 35 11
v -8 38 11
v -8 42 11
v -8 45 11
v -7 7 11
v -7 8 11
v -7 18 11
v -7 19 11
v -7 34 11
v -7 35 11
v -7 45 11
v -7 46 11
v -6 6 11
v -6 7 11
v -6 19 11
v -6 20 11
v -6 33 11
v -6 34 11
v -6 46 11
v -6 47 11
v -5 5 11
v -5 6 11
v -5 20 11
v -5 21 11
v -5 32 11
v -5 33 11
v -5 47 11
v -5 48 11
v -2 4 11
v -2 5 11
v -2 21 11
v -2 22 11
v -2 25 11
v -2 28 11
v -2 31 11
v -2 32 11
v -2 48 11
v -2 49 11
v -1 24 11
v -1 29 11
v 1 24 11
v 1 29 11
v 2 4 11
v 2 5 11
v 2 21 11
v 2 22 11
v 2 25 11
v 2 28 11
v 2 31 11
v 2 32 11
v 2 48 11
v 2 49 11
v 5 5 11
v 5 6 11
v 5 20 11
v 5 21 11
v 5 32 11
v 5 33 11
v 5 47 11
v 5 48 11
v 6 6 11
v 6 7 11
v 6 19 11
v 6 20 11
v 6 33 11
v 6 34 11
v 6 46 11
v 6 47 11
v 7 7 11
v 7 8 11
v 7 18 11
v 7 19 11
v 7 34 11
v 7 35 11
v 7 45 11
v 7 46 11
v 8 8 11
v 8 11 11
v 8 15 11
v 8 18 11
v 8 35 11
v 8 38 11
v 8 42 11
v 8 45 11
v 9 11 11
v 9 15 11
v 9 25 11
v 9 28 11
v 9 38 11
v 9 42 11
v 10 3 11
v 10 23 11
v 10 24 11
v 10 29 11
v 10 30 11
v 10 50 11
v 12 1 11
v 12 52 11
v -12 1 -11
v -12 52 -11
v 12 1 -11
v 12 52 -11
v -12 1 10
v -12 52 10
v -10 3 10
v -10 23 10
v -10 24 10
v -10 29 10
v -10 30 10
v -10 50 10
v -9 11 10
v -9 15 10
v -9 25 10
v -9 28 10
v -9 38 10
v -9 42 10
v -8 8 10
v -8 11 10
v -8 15 10
v -8 18 10
v -8 35 10
v -8 38 10
v -8 42 10
v -8 45 10
v -7 7 10
v -7 8 10
v -7 18 10
v -7 19 10
v -7 34 10
v -7 35 10
v -7 45 10
v -7 46 10
v -6 6 10
v -6 7 10
v -6 19 10
v -6 20 10
v -6 33 10
v -6 34 10
v -6 46 10
v -6 47 10
v -5 5 10
v -5 6 10
v -5 20 10
v -5 21 10
v -5 32 10
v -5 33 10
v -5 47 10
v -5 48 10
v -2 4 10
v -2 5 10
v -2 21 10
v -2 22 10
v -2 25 10
v -2 28 10
v -2 31 10
v -2 32 10
v -2 48 10
v -2 49 10
v -1 24 10
v -1 29 10
v 1 24 10
v 1 29 10
v 2 4 10
v 2 5 10
v 2 21 10
v 2 22 10
v 2 25 10
v 2 28 10
v 2 31 10
v 2 32 10
v 2 48 10
v 2 49 10
v 5 5 10
v 5 6 10
v 5 20 10
v 5 21 10
v 5 32 10
v 5 33 10
v 5 47 10
v 5 48 10
v 6 6 10
v 6 7 10
v 6 19 10
v 6 20 10
v 6 33 10
v 6 34 10
v 6 46 10
v 6 47 10
v 7 7 10
v 7 8 10
v 7 18 10
v 7 19 10
v 7 34 10
v 7 35 10
v 7 45 10
v 7 46 10
v 8 8 10
v 8 11 10
v 8 15 10
v 8 18 10
v 8 35 10
v 8 38 10
v 8 42 10
v 8 45 10
v 9 11 10
v 9 15 10
v 9 25 10
v 9 28 10
v 9 38 10
v 9 42 10
v 10 3 10
v 10 23 10
v 10 24 10
v 10 29 10
v 10 30 10
v 10 50 10
v 12 1 10
v 12 52 10
v -13 0 -12
v -13 53 -12
v 13 0 -12
v 13 53 -12
v -13 0 12
v 13 0 12
v -13 0 -12
v 13 0 -12
v -12 52 12
v 12 52 12
v -12 52 11
v 12 52 11
v -12 52 10
v 12 52 10
v -12 52 -11
v 12 52 -11
v -12 1 12
v 12 1 12
v -12 1 11
v 12 1 11
v -12 1 10
v 12 1 10
v -12 1 -11
v 12 1 -11
v -13 53 12
v 13 53 12
v -13 53 -12
v 13 53 -12

# faces
f 3/2/1 2/2/1 1/2/1
f 4/2/1 2/2/1 3/2/1
f 9/2/1 6/2/1 5/2/1
f 10/2/1 6/2/1 9/2/1
f 11/2/1 8/2/1 7/2/1
f 12/2/1 8/2/1 11/2/1
f 13/2/2 14/2/2 17/2/2
f 17/2/2 14/2/2 18/2/2
f 15/2/2 16/2/2 19/2/2
f 19/2/2 16/2/2 20/2/2
f 21/2/2 22/2/2 23/2/2
f 23/2/2 22/2/2 24/2/2
f 27/2/3 26/2/3 25/2/3
f 28/2/3 26/2/3 27/2/3
f 29/2/3 27/2/3 25/2/3
f 30/2/3 26/2/3 28/2/3
f 31/2/3 29/2/3 25/2/3
f 31/2/3 30/2/3 29/2/3
f 32/2/3 26/2/3 30/2/3
f 32/2/3 30/2/3 31/2/3
f 35/1/3 34/1/3 33/1/3
f 36/1/3 34/1/3 35/1/3
f 37/1/3 34/1/3 36/1/3
f 38/1/3 34/1/3 37/1/3
f 39/1/3 34/1/3 38/1/3
f 40/1/3 34/1/3 39/1/3
f 41/3/3 36/3/3 35/3/3
f 42/3/3 36/3/3 41/3/3
f 43/3/3 38/3/3 37/3/3
f 44/3/3 38/3/3 43/3/3
f 45/3/3 40/3/3 39/3/3
f 46/3/3 40/3/3 45/3/3
f 47/3/3 41/3/3 35/3/3
f 48/4/3 42/4/3 41/4/3
f 48/3/3 41/3/3 47/3/3
f 49/3/3 36/3/3 42/3/3
f 49/4/3 42/4/3 48/4/3
f 50/3/3 36/3/3 49/3/3
f 51/3/3 45/3/3 39/3/3
f 52/4/3 46/4/3 45/4/3
f 52/3/3 45/3/3 51/3/3
f 53/3/3 40/3/3 46/3/3
f 53/4/3 46/4/3 52/4/3
f 54/3/3 40/3/3 53/3/3
f 55/3/3 47/3/3 35/3/3
f 56/4/3 48/4/3 47/4/3
f 56/3/3 47/3/3 55/3/3
f 56/4/3 49/4/3 48/4/3
f 56/4/3 50/4/3 49/4/3
f 57/3/3 36/3/3 50/3/3
f 57/4/3 50/4/3 56/4/3
f 58/3/3 36/3/3 57/3/3
f 59/3/3 51/3/3 39/3/3
f 60/4/3 52/4/3 51/4/3
f 60/3/3 51/3/3 59/3/3
f 60/4/3 54/4/3 53/4/3
f 60/4/3 53/4/3 52/4/3
f 61/3/3 40/3/3 54/3/3
f 61/4/3 54/4/3 60/4/3
f 62/3/3 40/3/3 61/3/3
f 63/3/3 55/3/3 35/3/3
f 64/4/3 56/4/3 55/4/3
f 64/3/3 55/3/3 63/3/3
f 64/4/3 58/4/3 57/4/3
f 64/4/3 57/4/3 56/4/3
f 65/3/3 36/3/3 58/3/3
f 65/4/3 58/4/3 64/4/3
f 66/3/3 36/3/3 65/3/3
f 67/3/3 59/3/3 39/3/3
f 68/4/3 60/4/3 59/4/3
f 68/3/3 59/3/3 67/3/3
f 68/4/3 62/4/3 61/4/3
f 68/4/3 61/4/3 60/4/3
f 69/3/3 40/3/3 62/3/3
f 69/4/3 62/4/3 68/4/3
f 70/3/3 40/3/3 69/3/3
f 71/3/3 63/3/3 35/3/3
f 72/4/3 64/4/3 63/4/3
f 72/3/3 63/3/3 71/3/3
f 72/4/3 66/4/3 65/4/3
f 72/4/3 65/4/3 64/4/3
f 73/3/3 36/3/3 66/3/3
f 73/4/3 66/4/3 72/4/3
f 74/3/3 36/3/3 73/3/3
f 75/3/3 67/3/3 39/3/3
f 76/4/3 68/4/3 67/4/3
f 76/3/3 67/3/3 75/3/3
f 76/4/3 70/4/3 69/4/3
f 76/4/3 69/4/3 68/4/3
f 77/3/3 40/3/3 70/3/3
f 77/4/3 70/4/3 76/4/3
f 78/3/3 40/3/3 77/3/3
f 79/3/3 71/3/3 35/3/3
f 80/4/3 72/4/3 71/4/3
f 80/3/3 71/3/3 79/3/3
f 80/4/3 74/4/3 73/4/3
f 80/4/3 73/4/3 72/4/3
f 81/3/3 36/3/3 74/3/3
f 81/4/3 74/4/3 80/4/3
f 82/3/3 36/3/3 81/3/3
f 83/3/3 43/3/3 37/3/3
f 83/4/3 44/4/3 43/4/3
f 84/3/3 38/3/3 44/3/3
f 84/4/3 44/4/3 83/4/3
f 85/3/3 75/3/3 39/3/3
f 86/4/3 76/4/3 75/4/3
f 86/3/3 75/3/3 85/3/3
f 86/4/3 78/4/3 77/4/3
f 86/4/3 77/4/3 76/4/3
f 87/3/3 40/3/3 78/3/3
f 87/4/3 78/4/3 86/4/3
f 88/3/3 40/3/3 87/3/3
f 89/1/3 37/1/3 36/1/3
f 89/3/3 83/3/3 37/3/3
f 89/3/3 84/3/3 83/3/3
f 90/3/3 38/3/3 84/3/3
f 90/3/3 84/3/3 89/3/3
f 90/1/3 39/1/3 38/1/3
f 91/1/3 89/1/3 36/1/3
f 91/1/3 90/1/3 89/1/3
f 92/1/3 39/1/3 90/1/3
f 92/1/3 90/1/3 91/1/3
f 93/4/3 81/4/3 80/4/3
f 93/3/3 79/3/3 35/3/3
f 93/4/3 80/4/3 79/4/3
f 93/4/3 82/4/3 81/4/3
f 94/4/3 82/4/3 93/4/3
f 95/4/3 82/4/3 94/4/3
f 96/3/3 36/3/3 82/3/3
f 96/4/3 82/4/3 95/4/3
f 97/3/3 92/3/3 91/3/3
f 98/3/3 92/3/3 97/3/3
f 99/4/3 88/4/3 87/4/3
f 99/4/3 87/4/3 86/4/3
f 99/4/3 86/4/3 85/4/3
f 99/3/3 85/3/3 39/3/3
f 100/4/3 88/4/3 99/4/3
f 101/4/3 88/4/3 100/4/3
f 102/3/3 40/3/3 88/3/3
f 102/4/3 88/4/3 101/4/3
f 103/4/3 95/4/3 94/4/3
f 103/3/3 94/3/3 93/3/3
f 104/4/3 95/4/3 103/4/3
f 105/4/3 95/4/3 104/4/3
f 106/3/3 96/3/3 95/3/3
f 106/4/3 95/4/3 105/4/3
f 107/4/3 101/4/3 100/4/3
f 107/3/3 100/3/3 99/3/3
f 108/4/3 101/4/3 107/4/3
f 109/4/3 101/4/3 108/4/3
f 110/3/3 102/3/3 101/3/3
f 110/4/3 101/4/3 109/4/3
f 111/4/3 105/4/3 104/4/3
f 111/3/3 104/3/3 103/3/3
f 112/4/3 105/4/3 111/4/3
f 113/4/3 105/4/3 112/4/3
f 114/3/3 106/3/3 105/3/3
f 114/4/3 105/4/3 113/4/3
f 115/4/3 109/4/3 108/4/3
f 115/3/3 108/3/3 107/3/3
f 116/4/3 109/4/3 115/4/3
f 117/4/3 109/4/3 116/4/3
f 118/3/3 110/3/3 109/3/3
f 118/4/3 109/4/3 117/4/3
f 119/4/3 113/4/3 112/4/3
f 119/3/3 112/3/3 111/3/3
f 120/4/3 113/4/3 119/4/3
f 121/4/3 113/4/3 120/4/3
f 122/3/3 114/3/3 113/3/3
f 122/4/3 113/4/3 121/4/3
f 123/4/3 117/4/3 116/4/3
f 123/3/3 116/3/3 115/3/3
f 124/4/3 117/4/3 123/4/3
f 125/4/3 117/4/3 124/4/3
f 126/3/3 118/3/3 117/3/3
f 126/4/3 117/4/3 125/4/3
f 127/4/3 121/4/3 120/4/3
f 127/3/3 120/3/3 119/3/3
f 128/4/3 121/4/3 127/4/3
f 129/4/3 121/4/3 128/4/3
f 130/3/3 122/3/3 121/3/3
f 130/4/3 121/4/3 129/4/3
f 131/4/3 125/4/3 124/4/3
f 131/3/3 124/3/3 123/3/3
f 132/4/3 125/4/3 131/4/3
f 133/4/3 125/4/3 132/4/3
f 134/3/3 126/3/3 125/3/3
f 134/4/3 125/4/3 133/4/3
f 135/4/3 129/4/3 128/4/3
f 135/3/3 128/3/3 127/3/3
f 136/3/3 130/3/3 129/3/3
f 136/4/3 129/4/3 135/4/3
f 137/4/3 98/4/3 97/4/3
f 137/3/3 97/3/3 91/3/3
f 138/3/3 92/3/3 98/3/3
f 138/4/3 98/4/3 137/4/3
f 139/4/3 133/4/3 132/4/3
f 139/3/3 132/3/3 131/3/3
f 140/3/3 134/3/3 133/3/3
f 140/4/3 133/4/3 139/4/3
f 141/1/3 35/1/3 33/1/3
f 141/3/3 136/3/3 135/3/3
f 141/3/3 93/3/3 35/3/3
f 141/3/3 103/3/3 93/3/3
f 141/3/3 111/3/3 103/3/3
f 141/3/3 119/3/3 111/3/3
f 141/3/3 127/3/3 119/3/3
f 141/3/3 135/3/3 127/3/3
f 142/3/3 96/3/3 106/3/3
f 142/3/3 136/3/3 141/3/3
f 142/1/3 91/1/3 36/1/3
f 142/3/3 36/3/3 96/3/3
f 142/3/3 130/3/3 136/3/3
f 142/3/3 106/3/3 114/3/3
f 142/3/3 114/3/3 122/3/3
f 142/3/3 122/3/3 130/3/3
f 143/3/3 137/3/3 91/3/3
f 143/1/3 91/1/3 142/1/3
f 143/3/3 138/3/3 137/3/3
f 144/3/3 92/3/3 138/3/3
f 144/3/3 138/3/3 143/3/3
f 144/1/3 39/1/3 92/1/3
f 145/3/3 107/3/3 99/3/3
f 145/1/3 39/1/3 144/1/3
f 145/3/3 123/3/3 115/3/3
f 145/3/3 139/3/3 131/3/3
f 145/3/3 131/3/3 123/3/3
f 145/3/3 140/3/3 139/3/3
f 145/3/3 99/3/3 39/3/3
f 145/3/3 115/3/3 107/3/3
f 146/3/3 134/3/3 140/3/3
f 146/3/3 140/3/3 145/3/3
f 146/1/3 34/1/3 40/1/3
f 146/3/3 102/3/3 110/3/3
f 146/3/3 118/3/3 126/3/3
f 146/3/3 40/3/3 102/3/3
f 146/3/3 126/3/3 134/3/3
f 146/3/3 110/3/3 118/3/3
f 147/1/3 145/1/3 144/1/3
f 147/1/3 142/1/3 141/1/3
f 147/1/3 146/1/3 145/1/3
f 147/1/3 144/1/3 143/1/3
f 147/1/3 143/1/3 142/1/3
f 147/1/3 141/1/3 33/1/3
f 148/1/3 34/1/3 146/1/3
f 148/1/3 146/1/3 147/1/3
f 151/2/3 150/2/3 149/2/3
f 152/2/3 150/2/3 151/2/3
f 153/1/4 154/1/4 155/1/4
f 155/1/4 154/1/4 156/1/4
f 156/1/4 154/1/4 157/1/4
f 157/1/4 154/1/4 158/1/4
f 158/1/4 154/1/4 159/1/4
f 159/1/4 154/1/4 160/1/4
f 155/3/4 156/3/4 161/3/4
f 161/3/4 156/3/4 162/3/4
f 157/3/4 158/3/4 163/3/4
f 163/3/4 158/3/4 164/3/4
f 159/3/4 160/3/4 165/3/4
f 165/3/4 160/3/4 166/3/4
f 155/3/4 161/3/4 167/3/4
f 161/4/4 162/4/4 168/4/4
f 167/3/4 161/3/4 168/3/4
f 162/3/4 156/3/4 169/3/4
f 168/4/4 162/4/4 169/4/4
f 169/3/4 156/3/4 170/3/4
f 159/3/4 165/3/4 171/3/4
f 165/4/4 166/4/4 172/4/4
f 171/3/4 165/3/4 172/3/4
f 166/3/4 160/3/4 173/3/4
f 172/4/4 166/4/4 173/4/4
f 173/3/4 160/3/4 174/3/4
f 155/3/4 167/3/4 175/3/4
f 167/4/4 168/4/4 176/4/4
f 175/3/4 167/3/4 176/3/4
f 168/4/4 169/4/4 176/4/4
f 169/4/4 170/4/4 176/4/4
f 170/3/4 156/3/4 177/3/4
f 176/4/4 170/4/4 177/4/4
f 177/3/4 156/3/4 178/3/4
f 159/3/4 171/3/4 179/3/4
f 171/4/4 172/4/4 180/4/4
f 179/3/4 171/3/4 180/3/4
f 173/4/4 174/4/4 180/4/4
f 172/4/4 173/4/4 180/4/4
f 174/3/4 160/3/4 181/3/4
f 180/4/4 174/4/4 181/4/4
f 181/3/4 160/3/4 182/3/4
f 155/3/4 175/3/4 183/3/4
f 175/4/4 176/4/4 184/4/4
f 183/3/4 175/3/4 184/3/4
f 177/4/4 178/4/4 184/4/4
f 176/4/4 177/4/4 184/4/4
f 178/3/4 156/3/4 185/3/4
f 184/4/4 178/4/4 185/4/4
f 185/3/4 156/3/4 186/3/4
f 159/3/4 179/3/4 187/3/4
f 179/4/4 180/4/4 188/4/4
f 187/3/4 179/3/4 188/3/4
f 181/4/4 182/4/4 188/4/4
f 180/4/4 181/4/4 188/4/4
f 182/3/4 160/3/4 189/3/4
f 188/4/4 182/4/4 189/4/4
f 189/3/4 160/3/4 190/3/4
f 155/3/4 183/3/4 191/3/4
f 183/4/4 184/4/4 192/4/4
f 191/3/4 183/3/4 192/3/4
f 185/4/4 186/4/4 192/4/4
f 184/4/4 185/4/4 192/4/4
f 186/3/4 156/3/4 193/3/4
f 192/4/4 186/4/4 193/4/4
f 193/3/4 156/3/4 194/3/4
f 159/3/4 187/3/4 195/3/4
f 187/4/4 188/4/4 196/4/4
f 195/3/4 187/3/4 196/3/4
f 189/4/4 190/4/4 196/4/4
f 188/4/4 189/4/4 196/4/4
f 190/3/4 160/3/4 197/3/4
f 196/4/4 190/4/4 197/4/4
f 197/3/4 160/3/4 198/3/4
f 155/3/4 191/3/4 199/3/4
f 191/4/4 192/4/4 200/4/4
f 199/3/4 191/3/4 200/3/4
f 193/4/4 194/4/4 200/4/4
f 192/4/4 193/4/4 200/4/4
f 194/3/4 156/3/4 201/3/4
f 200/4/4 194/4/4 201/4/4
f 201/3/4 156/3/4 202/3/4
f 157/3/4 163/3/4 203/3/4
f 163/4/4 164/4/4 203/4/4
f 164/3/4 158/3/4 204/3/4
f 203/4/4 164/4/4 204/4/4
f 159/3/4 195/3/4 205/3/4
f 195/4/4 196/4/4 206/4/4
f 205/3/4 195/3/4 206/3/4
f 197/4/4 198/4/4 206/4/4
f 196/4/4 197/4/4 206/4/4
f 198/3/4 160/3/4 207/3/4
f 206/4/4 198/4/4 207/4/4
f 207/3/4 160/3/4 208/3/4
f 156/1/4 157/1/4 209/1/4
f 157/3/4 203/3/4 209/3/4
f 203/3/4 204/3/4 209/3/4
f 204/3/4 158/3/4 210/3/4
f 209/3/4 204/3/4 210/3/4
f 158/1/4 159/1/4 210/1/4
f 156/1/4 209/1/4 211/1/4
f 209/1/4 210/1/4 211/1/4
f 210/1/4 159/1/4 212/1/4
f 211/1/4 210/1/4 212/1/4
f 200/4/4 201/4/4 213/4/4
f 155/3/4 199/3/4 213/3/4
f 199/4/4 200/4/4 213/4/4
f 201/4/4 202/4/4 213/4/4
f 213/4/4 202/4/4 214/4/4
f 214/4/4 202/4/4 215/4/4
f 202/3/4 156/3/4 216/3/4
f 215/4/4 202/4/4 216/4/4
f 211/3/4 212/3/4 217/3/4
f 217/3/4 212/3/4 218/3/4
f 207/4/4 208/4/4 219/4/4
f 206/4/4 207/4/4 219/4/4
f 205/4/4 206/4/4 219/4/4
f 159/3/4 205/3/4 219/3/4
f 219/4/4 208/4/4 220/4/4
f 220/4/4 208/4/4 221/4/4
f 208/3/4 160/3/4 222/3/4
f 221/4/4 208/4/4 222/4/4
f 214/4/4 215/4/4 223/4/4
f 213/3/4 214/3/4 223/3/4
f 223/4/4 215/4/4 224/4/4
f 224/4/4 215/4/4 225/4/4
f 215/3/4 216/3/4 226/3/4
f 225/4/4 215/4/4 226/4/4
f 220/4/4 221/4/4 227/4/4
f 219/3/4 220/3/4 227/3/4
f 227/4/4 221/4/4 228/4/4
f 228/4/4 221/4/4 229/4/4
f 221/3/4 222/3/4 230/3/4
f 229/4/4 221/4/4 230/4/4
f 224/4/4 225/4/4 231/4/4
f 223/3/4 224/3/4 231/3/4
f 231/4/4 225/4/4 232/4/4
f 232/4/4 225/4/4 233/4/4
f 225/3/4 226/3/4 234/3/4
f 233/4/4 225/4/4 234/4/4
f 228/4/4 229/4/4 235/4/4
f 227/3/4 228/3/4 235/3/4
f 235/4/4 229/4/4 236/4/4
f 236/4/4 229/4/4 237/4/4
f 229/3/4 230/3/4 238/3/4
f 237/4/4 229/4/4 238/4/4
f 232/4/4 233/4/4 239/4/4
f 231/3/4 232/3/4 239/3/4
f 239/4/4 233/4/4 240/4/4
f 240/4/4 233/4/4 241/4/4
f 233/3/4 234/3/4 242/3/4
f 241/4/4 233/4/4 242/4/4
f 236/4/4 237/4/4 243/4/4
f 235/3/4 236/3/4 243/3/4
f 243/4/4 237/4/4 244/4/4
f 244/4/4 237/4/4 245/4/4
f 237/3/4 238/3/4 246/3/4
f 245/4/4 237/4/4 246/4/4
f 240/4/4 241/4/4 247/4/4
f 239/3/4 240/3/4 247/3/4
f 247/4/4 241/4/4 248/4/4
f 248/4/4 241/4/4 249/4/4
f 241/3/4 242/3/4 250/3/4
f 249/4/4 241/4/4 250/4/4
f 244/4/4 245/4/4 251/4/4
f 243/3/4 244/3/4 251/3/4
f 251/4/4 245/4/4 252/4/4
f 252/4/4 245/4/4 253/4/4
f 245/3/4 246/3/4 254/3/4
f 253/4/4 245/4/4 254/4/4
f 248/4/4 249/4/4 255/4/4
f 247/3/4 248/3/4 255/3/4
f 249/3/4 250/3/4 256/3/4
f 255/4/4 249/4/4 256/4/4
f 217/4/4 218/4/4 257/4/4
f 211/3/4 217/3/4 257/3/4
f 218/3/4 212/3/4 258/3/4
f 257/4/4 218/4/4 258/4/4
f 252/4/4 253/4/4 259/4/4
f 251/3/4 252/3/4 259/3/4
f 253/3/4 254/3/4 260/3/4
f 259/4/4 253/4/4 260/4/4
f 153/1/4 155/1/4 261/1/4
f 255/3/4 256/3/4 261/3/4
f 155/3/4 213/3/4 261/3/4
f 213/3/4 223/3/4 261/3/4
f 223/3/4 231/3/4 261/3/4
f 231/3/4 239/3/4 261/3/4
f 239/3/4 247/3/4 261/3/4
f 247/3/4 255/3/4 261/3/4
f 226/3/4 216/3/4 262/3/4
f 261/3/4 256/3/4 262/3/4
f 156/1/4 211/1/4 262/1/4
f 216/3/4 156/3/4 262/3/4
f 256/3/4 250/3/4 262/3/4
f 234/3/4 226/3/4 262/3/4
f 242/3/4 234/3/4 262/3/4
f 250/3/4 242/3/4 262/3/4
f 211/3/4 257/3/4 263/3/4
f 262/1/4 211/1/4 263/1/4
f 257/3/4 258/3/4 263/3/4
f 258/3/4 212/3/4 264/3/4
f 263/3/4 258/3/4 264/3/4
f 212/1/4 159/1/4 264/1/4
f 219/3/4 227/3/4 265/3/4
f 264/1/4 159/1/4 265/1/4
f 235/3/4 243/3/4 265/3/4
f 251/3/4 259/3/4 265/3/4
f 243/3/4 251/3/4 265/3/4
f 259/3/4 260/3/4 265/3/4
f 159/3/4 219/3/4 265/3/4
f 227/3/4 235/3/4 265/3/4
f 260/3/4 254/3/4 266/3/4
f 265/3/4 260/3/4 266/3/4
f 160/1/4 154/1/4 266/1/4
f 230/3/4 222/3/4 266/3/4
f 246/3/4 238/3/4 266/3/4
f 222/3/4 160/3/4 266/3/4
f 254/3/4 246/3/4 266/3/4
f 238/3/4 230/3/4 266/3/4
f 264/1/4 265/1/4 267/1/4
f 261/1/4 262/1/4 267/1/4
f 265/1/4 266/1/4 267/1/4
f 263/1/4 264/1/4 267/1/4
f 262/1/4 263/1/4 267/1/4
f 153/1/4 261/1/4 267/1/4
f 266/1/4 154/1/4 268/1/4
f 267/1/4 266/1/4 268/1/4
f 269/2/4 270/2/4 271/2/4
f 271/2/4 270/2/4 272/2/4
f 275/2/5 274/2/5 273/2/5
f 276/2/5 274/2/5 275/2/5
f 279/2/5 278/2/5 277/2/5
f 280/2/5 278/2/5 279/2/5
f 283/2/5 282/2/5 281/2/5
f 284/2/5 282/2/5 283/2/5
f 285/2/6 286/2/6 287/2/6
f 287/2/6 286/2/6 288/2/6
f 289/2/6 290/2/6 291/2/6
f 291/2/6 290/2/6 292/2/6
f 293/2/6 294/2/6 295/2/6
f 295/2/6 294/2/6 296/2/6
