# MagicaVoxel @ Ephtracy

# material
mtllib dive_bar_door_m.mtl
usemtl palette

# normals
vn -1 0 0
vn 1 0 0
vn 0 0 1
vn 0 0 -1
vn 0 -1 0
vn 0 1 0

# texcoords
vt 0.443359 0.5
vt 0.517578 0.5
vt 0.548828 0.5
vt 0.576172 0.5
vt 0.580078 0.5
vt 0.927734 0.5
vt 0.931641 0.5
vt 0.935547 0.5
vt 0.951172 0.5

# verts
v 28 0 32
v 28 0 24
v 28 0 22
v 28 0 18
v 28 0 13
v 28 0 -12
v 28 0 -17
v 28 0 -22
v 28 0 -24
v 28 0 -32
v 28 8 32
v 28 8 24
v 28 8 -24
v 28 8 -32
v 28 16 32
v 28 16 24
v 28 16 -24
v 28 16 -32
v 28 24 32
v 28 24 24
v 28 24 -24
v 28 24 -32
v 28 32 32
v 28 32 24
v 28 32 13
v 28 32 12
v 28 32 -11
v 28 32 -12
v 28 32 -24
v 28 32 -32
v 28 37 18
v 28 37 17
v 28 37 -16
v 28 37 -17
v 28 39 12
v 28 39 11
v 28 39 -10
v 28 39 -11
v 28 40 32
v 28 40 24
v 28 40 11
v 28 40 10
v 28 40 -8
v 28 40 -10
v 28 40 -24
v 28 40 -32
v 28 41 10
v 28 41 8
v 28 41 -6
v 28 41 -8
v 28 42 8
v 28 42 3
v 28 42 -2
v 28 42 -6
v 28 43 3
v 28 43 -2
v 28 45 17
v 28 45 16
v 28 45 -15
v 28 45 -16
v 28 47 16
v 28 47 14
v 28 47 -14
v 28 47 -15
v 28 48 32
v 28 48 24
v 28 48 14
v 28 48 12
v 28 48 -12
v 28 48 -14
v 28 48 -24
v 28 48 -32
v 28 49 12
v 28 49 9
v 28 49 -9
v 28 49 -12
v 28 50 9
v 28 50 -0
v 28 50 -5
v 28 50 -9
v 28 51 -0
v 28 51 -5
v 28 54 22
v 28 54 21
v 28 54 -22
v 28 55 22
v 28 55 21
v 28 56 32
v 28 56 24
v 28 56 8
v 28 56 -8
v 28 56 -24
v 28 56 -32
v 28 64 32
v 28 64 24
v 28 64 8
v 28 64 -8
v 28 64 -24
v 28 64 -32
v 29 54 22
v 29 54 21
v 29 55 22
v 29 55 21
v 31 0 -10
v 31 0 -15
v 31 1 -10
v 31 1 -15
v 29 0 22
v 29 0 18
v 29 0 13
v 29 0 -12
v 29 0 -14
v 29 0 -18
v 29 0 -22
v 29 2 -14
v 29 2 -17
v 29 2 -18
v 29 32 13
v 29 32 12
v 29 32 -11
v 29 32 -12
v 29 37 18
v 29 37 17
v 29 37 -16
v 29 37 -17
v 29 39 12
v 29 39 11
v 29 39 -10
v 29 39 -11
v 29 40 11
v 29 40 10
v 29 40 -8
v 29 40 -10
v 29 41 10
v 29 41 8
v 29 41 -6
v 29 41 -8
v 29 42 8
v 29 42 3
v 29 42 -2
v 29 42 -6
v 29 43 3
v 29 43 -2
v 29 45 17
v 29 45 16
v 29 45 -15
v 29 45 -16
v 29 47 16
v 29 47 14
v 29 47 -14
v 29 47 -15
v 29 48 14
v 29 48 12
v 29 48 -12
v 29 48 -14
v 29 49 12
v 29 49 9
v 29 49 -9
v 29 49 -12
v 29 50 9
v 29 50 -0
v 29 50 -5
v 29 50 -9
v 29 51 -0
v 29 51 -5
v 29 54 22
v 29 54 -22
v 30 0 -14
v 30 0 -15
v 30 0 -17
v 30 0 -18
v 30 1 -15
v 30 1 -17
v 30 2 -14
v 30 2 -18
v 31 0 24
v 31 0 22
v 31 0 -22
v 31 0 -24
v 31 0 -31
v 31 0 -32
v 31 8 25
v 31 8 24
v 31 8 -24
v 31 8 -31
v 31 8 -32
v 31 16 25
v 31 16 24
v 31 16 -24
v 31 16 -31
v 31 16 -32
v 31 24 25
v 31 24 24
v 31 24 -24
v 31 24 -31
v 31 24 -32
v 31 32 25
v 31 32 24
v 31 32 -24
v 31 32 -31
v 31 32 -32
v 31 40 25
v 31 40 24
v 31 40 -24
v 31 40 -31
v 31 40 -32
v 31 48 25
v 31 48 24
v 31 48 -24
v 31 48 -31
v 31 48 -32
v 31 54 22
v 31 54 -22
v 31 56 25
v 31 56 24
v 31 56 9
v 31 56 8
v 31 56 -7
v 31 56 -8
v 31 56 -23
v 31 56 -24
v 31 56 -31
v 31 56 -32
v 31 64 25
v 31 64 24
v 31 64 9
v 31 64 8
v 31 64 -7
v 31 64 -8
v 31 64 -23
v 31 64 -24
v 32 0 32
v 32 0 24
v 32 0 -10
v 32 0 -17
v 32 0 -24
v 32 0 -31
v 32 1 -10
v 32 1 -17
v 32 8 32
v 32 8 25
v 32 8 24
v 32 8 -24
v 32 8 -31
v 32 8 -32
v 32 16 32
v 32 16 25
v 32 16 24
v 32 16 -24
v 32 16 -31
v 32 16 -32
v 32 24 32
v 32 24 25
v 32 24 24
v 32 24 -24
v 32 24 -31
v 32 24 -32
v 32 32 32
v 32 32 25
v 32 32 24
v 32 32 -24
v 32 32 -31
v 32 32 -32
v 32 40 32
v 32 40 25
v 32 40 24
v 32 40 -24
v 32 40 -31
v 32 40 -32
v 32 48 32
v 32 48 25
v 32 48 24
v 32 48 -24
v 32 48 -31
v 32 48 -32
v 32 56 32
v 32 56 25
v 32 56 24
v 32 56 9
v 32 56 8
v 32 56 -7
v 32 56 -8
v 32 56 -23
v 32 56 -24
v 32 56 -31
v 32 56 -32
v 32 64 32
v 32 64 25
v 32 64 24
v 32 64 9
v 32 64 8
v 32 64 -7
v 32 64 -8
v 32 64 -23
v 32 64 -24
v 32 64 -32
v 28 0 32
v 28 8 32
v 28 16 32
v 28 24 32
v 28 32 32
v 28 40 32
v 28 48 32
v 28 56 32
v 28 64 32
v 32 0 32
v 32 8 32
v 32 16 32
v 32 24 32
v 32 32 32
v 32 40 32
v 32 48 32
v 32 56 32
v 32 64 32
v 31 56 24
v 31 64 24
v 32 56 24
v 32 64 24
v 28 54 21
v 28 55 21
v 29 54 21
v 29 55 21
v 31 56 8
v 31 64 8
v 32 56 8
v 32 64 8
v 31 56 -8
v 31 64 -8
v 32 56 -8
v 32 64 -8
v 31 0 -10
v 31 1 -10
v 32 0 -10
v 32 1 -10
v 29 0 -14
v 29 2 -14
v 30 0 -14
v 30 2 -14
v 30 0 -15
v 30 1 -15
v 31 0 -15
v 31 1 -15
v 29 0 -22
v 29 54 -22
v 31 0 -22
v 31 54 -22
v 31 0 -24
v 31 8 -24
v 31 16 -24
v 31 24 -24
v 31 32 -24
v 31 40 -24
v 31 48 -24
v 31 56 -24
v 31 64 -24
v 32 0 -24
v 32 8 -24
v 32 16 -24
v 32 24 -24
v 32 32 -24
v 32 40 -24
v 32 48 -24
v 32 56 -24
v 32 64 -24
v 31 8 25
v 31 16 25
v 31 24 25
v 31 32 25
v 31 40 25
v 31 48 25
v 31 56 25
v 31 64 25
v 32 8 25
v 32 16 25
v 32 24 25
v 32 32 25
v 32 40 25
v 32 48 25
v 32 56 25
v 32 64 25
v 31 0 24
v 31 8 24
v 31 16 24
v 31 24 24
v 31 32 24
v 31 40 24
v 31 48 24
v 31 56 24
v 32 0 24
v 32 8 24
v 32 16 24
v 32 24 24
v 32 32 24
v 32 40 24
v 32 48 24
v 32 56 24
v 28 54 22
v 28 55 22
v 29 0 22
v 29 54 22
v 29 55 22
v 31 0 22
v 31 54 22
v 31 56 9
v 31 64 9
v 32 56 9
v 32 64 9
v 31 56 -7
v 31 64 -7
v 32 56 -7
v 32 64 -7
v 30 0 -17
v 30 1 -17
v 32 0 -17
v 32 1 -17
v 29 0 -18
v 29 2 -18
v 30 0 -18
v 30 2 -18
v 31 56 -23
v 31 64 -23
v 32 56 -23
v 32 64 -23
v 31 0 -31
v 31 8 -31
v 31 16 -31
v 31 24 -31
v 31 32 -31
v 31 40 -31
v 31 48 -31
v 31 56 -31
v 32 0 -31
v 32 8 -31
v 32 16 -31
v 32 24 -31
v 32 32 -31
v 32 40 -31
v 32 48 -31
v 32 56 -31
v 28 0 -32
v 28 8 -32
v 28 16 -32
v 28 24 -32
v 28 32 -32
v 28 40 -32
v 28 48 -32
v 28 56 -32
v 28 64 -32
v 31 0 -32
v 31 8 -32
v 31 16 -32
v 31 24 -32
v 31 32 -32
v 31 40 -32
v 31 48 -32
v 31 56 -32
v 32 8 -32
v 32 16 -32
v 32 24 -32
v 32 32 -32
v 32 40 -32
v 32 48 -32
v 32 56 -32
v 32 64 -32
v 28 0 32
v 32 0 32
v 28 0 24
v 31 0 24
v 32 0 24
v 28 0 22
v 29 0 22
v 31 0 22
v 28 0 18
v 29 0 18
v 28 0 13
v 29 0 13
v 31 0 -10
v 32 0 -10
v 28 0 -12
v 29 0 -12
v 29 0 -14
v 30 0 -14
v 30 0 -15
v 31 0 -15
v 28 0 -17
v 29 0 -17
v 30 0 -17
v 32 0 -17
v 29 0 -18
v 30 0 -18
v 28 0 -22
v 29 0 -22
v 31 0 -22
v 28 0 -24
v 31 0 -24
v 32 0 -24
v 31 0 -31
v 32 0 -31
v 28 0 -32
v 31 0 -32
v 31 8 -31
v 32 8 -31
v 31 8 -32
v 32 8 -32
v 31 16 25
v 32 16 25
v 31 16 24
v 32 16 24
v 31 24 -31
v 32 24 -31
v 31 24 -32
v 32 24 -32
v 31 32 25
v 32 32 25
v 31 32 24
v 32 32 24
v 31 40 -31
v 32 40 -31
v 31 40 -32
v 32 40 -32
v 31 48 25
v 32 48 25
v 31 48 24
v 32 48 24
v 29 54 22
v 31 54 22
v 29 54 -22
v 31 54 -22
v 28 55 22
v 29 55 22
v 28 55 21
v 29 55 21
v 31 56 24
v 32 56 24
v 31 56 9
v 32 56 9
v 31 56 8
v 32 56 8
v 31 56 -7
v 32 56 -7
v 31 56 -8
v 32 56 -8
v 31 56 -23
v 32 56 -23
v 31 56 -31
v 32 56 -31
v 31 56 -32
v 32 56 -32
v 31 1 -10
v 32 1 -10
v 30 1 -15
v 31 1 -15
v 30 1 -17
v 32 1 -17
v 29 2 -14
v 30 2 -14
v 29 2 -17
v 29 2 -18
v 30 2 -18
v 31 8 25
v 32 8 25
v 31 8 24
v 32 8 24
v 31 16 -31
v 32 16 -31
v 31 16 -32
v 32 16 -32
v 31 24 25
v 32 24 25
v 31 24 24
v 32 24 24
v 31 32 -31
v 32 32 -31
v 31 32 -32
v 32 32 -32
v 31 40 25
v 32 40 25
v 31 40 24
v 32 40 24
v 31 48 -31
v 32 48 -31
v 31 48 -32
v 32 48 -32
v 28 54 22
v 29 54 22
v 28 54 21
v 29 54 21
v 31 56 25
v 32 56 25
v 31 56 24
v 32 56 24
v 28 64 32
v 32 64 32
v 31 64 25
v 32 64 25
v 28 64 24
v 31 64 24
v 32 64 24
v 31 64 9
v 32 64 9
v 28 64 8
v 31 64 8
v 32 64 8
v 31 64 -7
v 32 64 -7
v 28 64 -8
v 31 64 -8
v 32 64 -8
v 31 64 -23
v 32 64 -23
v 28 64 -24
v 31 64 -24
v 32 64 -24
v 28 64 -32
v 32 64 -32

# faces
f 11/5/1 2/5/1 1/5/1
f 12/9/1 3/9/1 2/9/1
f 12/5/1 2/5/1 11/5/1
f 13/5/1 10/5/1 9/5/1
f 13/9/1 9/9/1 8/9/1
f 14/5/1 10/5/1 13/5/1
f 15/3/1 12/3/1 11/3/1
f 16/9/1 3/9/1 12/9/1
f 16/3/1 12/3/1 15/3/1
f 17/9/1 13/9/1 8/9/1
f 17/3/1 14/3/1 13/3/1
f 18/3/1 14/3/1 17/3/1
f 19/4/1 16/4/1 15/4/1
f 20/9/1 3/9/1 16/9/1
f 20/4/1 16/4/1 19/4/1
f 21/9/1 17/9/1 8/9/1
f 21/5/1 18/5/1 17/5/1
f 22/5/1 18/5/1 21/5/1
f 23/3/1 20/3/1 19/3/1
f 24/9/1 3/9/1 20/9/1
f 24/3/1 20/3/1 23/3/1
f 25/7/1 5/7/1 4/7/1
f 25/6/1 6/6/1 5/6/1
f 26/6/1 6/6/1 25/6/1
f 27/6/1 6/6/1 26/6/1
f 28/7/1 7/7/1 6/7/1
f 28/6/1 6/6/1 27/6/1
f 29/9/1 21/9/1 8/9/1
f 29/3/1 22/3/1 21/3/1
f 30/3/1 22/3/1 29/3/1
f 31/8/1 4/8/1 3/8/1
f 31/7/1 25/7/1 4/7/1
f 31/7/1 26/7/1 25/7/1
f 32/7/1 26/7/1 31/7/1
f 33/7/1 7/7/1 28/7/1
f 33/7/1 28/7/1 27/7/1
f 34/8/1 8/8/1 7/8/1
f 34/7/1 7/7/1 33/7/1
f 35/6/1 27/6/1 26/6/1
f 35/7/1 26/7/1 32/7/1
f 36/6/1 27/6/1 35/6/1
f 37/6/1 27/6/1 36/6/1
f 38/7/1 33/7/1 27/7/1
f 38/6/1 27/6/1 37/6/1
f 39/4/1 24/4/1 23/4/1
f 40/9/1 3/9/1 24/9/1
f 40/4/1 24/4/1 39/4/1
f 41/6/1 37/6/1 36/6/1
f 41/7/1 36/7/1 35/7/1
f 42/6/1 37/6/1 41/6/1
f 43/6/1 37/6/1 42/6/1
f 44/7/1 38/7/1 37/7/1
f 44/6/1 37/6/1 43/6/1
f 45/5/1 30/5/1 29/5/1
f 45/9/1 29/9/1 8/9/1
f 46/5/1 30/5/1 45/5/1
f 47/6/1 43/6/1 42/6/1
f 47/7/1 42/7/1 41/7/1
f 48/6/1 43/6/1 47/6/1
f 49/6/1 43/6/1 48/6/1
f 50/7/1 44/7/1 43/7/1
f 50/6/1 43/6/1 49/6/1
f 51/6/1 49/6/1 48/6/1
f 51/7/1 48/7/1 47/7/1
f 52/6/1 49/6/1 51/6/1
f 53/6/1 49/6/1 52/6/1
f 54/7/1 50/7/1 49/7/1
f 54/6/1 49/6/1 53/6/1
f 55/6/1 53/6/1 52/6/1
f 55/7/1 52/7/1 51/7/1
f 56/7/1 54/7/1 53/7/1
f 56/6/1 53/6/1 55/6/1
f 57/8/1 32/8/1 31/8/1
f 57/7/1 35/7/1 32/7/1
f 57/7/1 56/7/1 55/7/1
f 57/7/1 55/7/1 51/7/1
f 57/7/1 51/7/1 47/7/1
f 57/7/1 41/7/1 35/7/1
f 57/7/1 47/7/1 41/7/1
f 58/7/1 56/7/1 57/7/1
f 59/7/1 33/7/1 38/7/1
f 59/7/1 56/7/1 58/7/1
f 59/7/1 54/7/1 56/7/1
f 59/7/1 38/7/1 44/7/1
f 59/7/1 44/7/1 50/7/1
f 59/7/1 50/7/1 54/7/1
f 60/8/1 34/8/1 33/8/1
f 60/7/1 33/7/1 59/7/1
f 61/8/1 58/8/1 57/8/1
f 61/7/1 59/7/1 58/7/1
f 62/7/1 59/7/1 61/7/1
f 63/7/1 59/7/1 62/7/1
f 64/8/1 60/8/1 59/8/1
f 64/7/1 59/7/1 63/7/1
f 65/2/1 40/2/1 39/2/1
f 66/9/1 3/9/1 40/9/1
f 66/2/1 40/2/1 65/2/1
f 67/7/1 63/7/1 62/7/1
f 67/8/1 62/8/1 61/8/1
f 68/7/1 63/7/1 67/7/1
f 69/7/1 63/7/1 68/7/1
f 70/8/1 64/8/1 63/8/1
f 70/7/1 63/7/1 69/7/1
f 71/2/1 46/2/1 45/2/1
f 71/9/1 45/9/1 8/9/1
f 72/2/1 46/2/1 71/2/1
f 73/7/1 69/7/1 68/7/1
f 73/8/1 68/8/1 67/8/1
f 74/7/1 69/7/1 73/7/1
f 75/7/1 69/7/1 74/7/1
f 76/8/1 70/8/1 69/8/1
f 76/7/1 69/7/1 75/7/1
f 77/7/1 75/7/1 74/7/1
f 77/8/1 74/8/1 73/8/1
f 78/7/1 75/7/1 77/7/1
f 79/7/1 75/7/1 78/7/1
f 80/8/1 76/8/1 75/8/1
f 80/7/1 75/7/1 79/7/1
f 81/7/1 79/7/1 78/7/1
f 81/8/1 78/8/1 77/8/1
f 82/8/1 80/8/1 79/8/1
f 82/7/1 79/7/1 81/7/1
f 83/9/1 3/9/1 66/9/1
f 83/8/1 57/8/1 31/8/1
f 83/8/1 82/8/1 81/8/1
f 83/8/1 81/8/1 77/8/1
f 83/8/1 77/8/1 73/8/1
f 83/8/1 31/8/1 3/8/1
f 83/8/1 73/8/1 67/8/1
f 83/8/1 61/8/1 57/8/1
f 83/8/1 67/8/1 61/8/1
f 84/8/1 82/8/1 83/8/1
f 85/8/1 34/8/1 60/8/1
f 85/8/1 82/8/1 84/8/1
f 85/8/1 8/8/1 34/8/1
f 85/8/1 80/8/1 82/8/1
f 85/8/1 76/8/1 80/8/1
f 85/8/1 64/8/1 70/8/1
f 85/8/1 70/8/1 76/8/1
f 85/8/1 60/8/1 64/8/1
f 85/9/1 71/9/1 8/9/1
f 86/9/1 83/9/1 66/9/1
f 87/9/1 85/9/1 84/9/1
f 88/5/1 66/5/1 65/5/1
f 89/9/1 86/9/1 66/9/1
f 89/5/1 66/5/1 88/5/1
f 89/9/1 87/9/1 86/9/1
f 90/9/1 85/9/1 87/9/1
f 90/9/1 87/9/1 89/9/1
f 91/9/1 85/9/1 90/9/1
f 92/9/1 71/9/1 85/9/1
f 92/9/1 85/9/1 91/9/1
f 92/4/1 72/4/1 71/4/1
f 93/4/1 72/4/1 92/4/1
f 94/3/1 89/3/1 88/3/1
f 95/2/1 90/2/1 89/2/1
f 95/3/1 89/3/1 94/3/1
f 96/4/1 91/4/1 90/4/1
f 96/2/1 90/2/1 95/2/1
f 97/5/1 92/5/1 91/5/1
f 97/4/1 91/4/1 96/4/1
f 98/3/1 93/3/1 92/3/1
f 98/5/1 92/5/1 97/5/1
f 99/3/1 93/3/1 98/3/1
f 102/9/1 101/9/1 100/9/1
f 103/9/1 101/9/1 102/9/1
f 106/9/1 105/9/1 104/9/1
f 107/9/1 105/9/1 106/9/1
f 111/7/2 112/7/2 115/7/2
f 113/8/2 114/8/2 117/8/2
f 109/7/2 110/7/2 118/7/2
f 110/6/2 111/6/2 118/6/2
f 118/6/2 111/6/2 119/6/2
f 119/6/2 111/6/2 120/6/2
f 115/7/2 116/7/2 121/7/2
f 120/6/2 111/6/2 121/6/2
f 111/7/2 115/7/2 121/7/2
f 108/8/2 109/8/2 122/8/2
f 118/7/2 119/7/2 122/7/2
f 109/7/2 118/7/2 122/7/2
f 122/7/2 119/7/2 123/7/2
f 121/7/2 116/7/2 124/7/2
f 120/7/2 121/7/2 124/7/2
f 116/8/2 117/8/2 125/8/2
f 124/7/2 116/7/2 125/7/2
f 123/7/2 119/7/2 126/7/2
f 119/6/2 120/6/2 126/6/2
f 126/6/2 120/6/2 127/6/2
f 127/6/2 120/6/2 128/6/2
f 120/7/2 124/7/2 129/7/2
f 128/6/2 120/6/2 129/6/2
f 127/6/2 128/6/2 130/6/2
f 126/7/2 127/7/2 130/7/2
f 130/6/2 128/6/2 131/6/2
f 131/6/2 128/6/2 132/6/2
f 128/7/2 129/7/2 133/7/2
f 132/6/2 128/6/2 133/6/2
f 131/6/2 132/6/2 134/6/2
f 130/7/2 131/7/2 134/7/2
f 134/6/2 132/6/2 135/6/2
f 135/6/2 132/6/2 136/6/2
f 132/7/2 133/7/2 137/7/2
f 136/6/2 132/6/2 137/6/2
f 135/6/2 136/6/2 138/6/2
f 134/7/2 135/7/2 138/7/2
f 138/6/2 136/6/2 139/6/2
f 139/6/2 136/6/2 140/6/2
f 136/7/2 137/7/2 141/7/2
f 140/6/2 136/6/2 141/6/2
f 139/6/2 140/6/2 142/6/2
f 138/7/2 139/7/2 142/7/2
f 140/7/2 141/7/2 143/7/2
f 142/6/2 140/6/2 143/6/2
f 122/8/2 123/8/2 144/8/2
f 123/7/2 126/7/2 144/7/2
f 142/7/2 143/7/2 144/7/2
f 138/7/2 142/7/2 144/7/2
f 134/7/2 138/7/2 144/7/2
f 126/7/2 130/7/2 144/7/2
f 130/7/2 134/7/2 144/7/2
f 144/7/2 143/7/2 145/7/2
f 129/7/2 124/7/2 146/7/2
f 145/7/2 143/7/2 146/7/2
f 143/7/2 141/7/2 146/7/2
f 141/7/2 137/7/2 146/7/2
f 137/7/2 133/7/2 146/7/2
f 133/7/2 129/7/2 146/7/2
f 124/8/2 125/8/2 147/8/2
f 146/7/2 124/7/2 147/7/2
f 144/8/2 145/8/2 148/8/2
f 145/7/2 146/7/2 148/7/2
f 148/7/2 146/7/2 149/7/2
f 149/7/2 146/7/2 150/7/2
f 146/8/2 147/8/2 151/8/2
f 150/7/2 146/7/2 151/7/2
f 149/7/2 150/7/2 152/7/2
f 148/8/2 149/8/2 152/8/2
f 152/7/2 150/7/2 153/7/2
f 153/7/2 150/7/2 154/7/2
f 150/8/2 151/8/2 155/8/2
f 154/7/2 150/7/2 155/7/2
f 153/7/2 154/7/2 156/7/2
f 152/8/2 153/8/2 156/8/2
f 156/7/2 154/7/2 157/7/2
f 157/7/2 154/7/2 158/7/2
f 154/8/2 155/8/2 159/8/2
f 158/7/2 154/7/2 159/7/2
f 157/7/2 158/7/2 160/7/2
f 156/8/2 157/8/2 160/8/2
f 160/7/2 158/7/2 161/7/2
f 161/7/2 158/7/2 162/7/2
f 158/8/2 159/8/2 163/8/2
f 162/7/2 158/7/2 163/7/2
f 161/7/2 162/7/2 164/7/2
f 160/8/2 161/8/2 164/8/2
f 162/8/2 163/8/2 165/8/2
f 164/7/2 162/7/2 165/7/2
f 122/8/2 144/8/2 166/8/2
f 108/8/2 122/8/2 166/8/2
f 164/8/2 165/8/2 166/8/2
f 160/8/2 164/8/2 166/8/2
f 156/8/2 160/8/2 166/8/2
f 144/8/2 148/8/2 166/8/2
f 152/8/2 156/8/2 166/8/2
f 148/8/2 152/8/2 166/8/2
f 125/8/2 117/8/2 167/8/2
f 166/8/2 165/8/2 167/8/2
f 147/8/2 125/8/2 167/8/2
f 155/8/2 151/8/2 167/8/2
f 159/8/2 155/8/2 167/8/2
f 163/8/2 159/8/2 167/8/2
f 117/8/2 114/8/2 167/8/2
f 165/8/2 163/8/2 167/8/2
f 151/8/2 147/8/2 167/8/2
f 168/1/2 169/1/2 172/1/2
f 170/1/2 171/1/2 173/1/2
f 168/1/2 172/1/2 174/1/2
f 172/1/2 173/1/2 174/1/2
f 173/1/2 171/1/2 175/1/2
f 174/1/2 173/1/2 175/1/2
f 176/9/2 177/9/2 183/9/2
f 178/9/2 179/9/2 184/9/2
f 180/5/2 181/5/2 185/5/2
f 185/5/2 181/5/2 186/5/2
f 182/3/2 183/3/2 187/3/2
f 183/9/2 177/9/2 188/9/2
f 187/3/2 183/3/2 188/3/2
f 178/9/2 184/9/2 189/9/2
f 188/9/2 177/9/2 193/9/2
f 178/9/2 189/9/2 194/9/2
f 190/5/2 191/5/2 195/5/2
f 195/5/2 191/5/2 196/5/2
f 192/3/2 193/3/2 197/3/2
f 193/9/2 177/9/2 198/9/2
f 197/3/2 193/3/2 198/3/2
f 178/9/2 194/9/2 199/9/2
f 198/9/2 177/9/2 203/9/2
f 178/9/2 199/9/2 204/9/2
f 200/5/2 201/5/2 205/5/2
f 205/5/2 201/5/2 206/5/2
f 202/2/2 203/2/2 207/2/2
f 203/9/2 177/9/2 208/9/2
f 207/2/2 203/2/2 208/2/2
f 178/9/2 204/9/2 209/9/2
f 208/9/2 177/9/2 212/9/2
f 178/9/2 209/9/2 213/9/2
f 208/9/2 212/9/2 215/9/2
f 212/9/2 213/9/2 215/9/2
f 215/9/2 213/9/2 216/9/2
f 216/9/2 213/9/2 217/9/2
f 217/9/2 213/9/2 218/9/2
f 218/9/2 213/9/2 219/9/2
f 213/9/2 209/9/2 220/9/2
f 219/9/2 213/9/2 220/9/2
f 220/9/2 209/9/2 221/9/2
f 210/4/2 211/4/2 222/4/2
f 222/4/2 211/4/2 223/4/2
f 214/3/2 215/3/2 224/3/2
f 224/3/2 215/3/2 225/3/2
f 216/2/2 217/2/2 226/2/2
f 226/2/2 217/2/2 227/2/2
f 218/4/2 219/4/2 228/4/2
f 228/4/2 219/4/2 229/4/2
f 220/5/2 221/5/2 230/5/2
f 230/5/2 221/5/2 231/5/2
f 234/9/2 235/9/2 238/9/2
f 238/9/2 235/9/2 239/9/2
f 232/5/2 233/5/2 240/5/2
f 240/5/2 233/5/2 241/5/2
f 241/5/2 233/5/2 242/5/2
f 236/5/2 237/5/2 243/5/2
f 243/5/2 237/5/2 244/5/2
f 240/3/2 241/3/2 246/3/2
f 246/3/2 241/3/2 247/3/2
f 244/3/2 245/3/2 249/3/2
f 243/3/2 244/3/2 249/3/2
f 249/3/2 245/3/2 250/3/2
f 250/3/2 245/3/2 251/3/2
f 247/4/2 248/4/2 252/4/2
f 246/4/2 247/4/2 252/4/2
f 252/4/2 248/4/2 253/4/2
f 253/4/2 248/4/2 254/4/2
f 249/5/2 250/5/2 255/5/2
f 255/5/2 250/5/2 256/5/2
f 252/3/2 253/3/2 258/3/2
f 258/3/2 253/3/2 259/3/2
f 256/3/2 257/3/2 261/3/2
f 255/3/2 256/3/2 261/3/2
f 261/3/2 257/3/2 262/3/2
f 262/3/2 257/3/2 263/3/2
f 259/4/2 260/4/2 264/4/2
f 258/4/2 259/4/2 264/4/2
f 264/4/2 260/4/2 265/4/2
f 265/4/2 260/4/2 266/4/2
f 261/5/2 262/5/2 267/5/2
f 267/5/2 262/5/2 268/5/2
f 264/2/2 265/2/2 270/2/2
f 270/2/2 265/2/2 271/2/2
f 268/2/2 269/2/2 273/2/2
f 267/2/2 268/2/2 273/2/2
f 273/2/2 269/2/2 274/2/2
f 274/2/2 269/2/2 275/2/2
f 271/5/2 272/5/2 276/5/2
f 270/5/2 271/5/2 276/5/2
f 276/5/2 272/5/2 277/5/2
f 277/5/2 272/5/2 278/5/2
f 273/4/2 274/4/2 284/4/2
f 284/4/2 274/4/2 285/4/2
f 276/3/2 277/3/2 287/3/2
f 287/3/2 277/3/2 288/3/2
f 278/2/2 279/2/2 289/2/2
f 289/2/2 279/2/2 290/2/2
f 280/4/2 281/4/2 291/4/2
f 291/4/2 281/4/2 292/4/2
f 282/5/2 283/5/2 293/5/2
f 293/5/2 283/5/2 294/5/2
f 285/3/2 286/3/2 295/3/2
f 284/3/2 285/3/2 295/3/2
f 295/3/2 286/3/2 296/3/2
f 306/5/3 298/5/3 297/5/3
f 307/3/3 299/3/3 298/3/3
f 307/5/3 298/5/3 306/5/3
f 308/4/3 300/4/3 299/4/3
f 308/3/3 299/3/3 307/3/3
f 309/3/3 301/3/3 300/3/3
f 309/4/3 300/4/3 308/4/3
f 310/4/3 302/4/3 301/4/3
f 310/3/3 301/3/3 309/3/3
f 311/2/3 303/2/3 302/2/3
f 311/4/3 302/4/3 310/4/3
f 312/5/3 304/5/3 303/5/3
f 312/2/3 303/2/3 311/2/3
f 313/3/3 305/3/3 304/3/3
f 313/5/3 304/5/3 312/5/3
f 314/3/3 305/3/3 313/3/3
f 317/2/3 316/2/3 315/2/3
f 318/2/3 316/2/3 317/2/3
f 321/9/3 320/9/3 319/9/3
f 322/9/3 320/9/3 321/9/3
f 325/4/3 324/4/3 323/4/3
f 326/4/3 324/4/3 325/4/3
f 329/5/3 328/5/3 327/5/3
f 330/5/3 328/5/3 329/5/3
f 333/9/3 332/9/3 331/9/3
f 334/9/3 332/9/3 333/9/3
f 337/1/3 336/1/3 335/1/3
f 338/1/3 336/1/3 337/1/3
f 341/9/3 340/9/3 339/9/3
f 342/9/3 340/9/3 341/9/3
f 345/9/3 344/9/3 343/9/3
f 346/9/3 344/9/3 345/9/3
f 356/5/3 348/5/3 347/5/3
f 357/3/3 349/3/3 348/3/3
f 357/5/3 348/5/3 356/5/3
f 358/5/3 350/5/3 349/5/3
f 358/3/3 349/3/3 357/3/3
f 359/3/3 351/3/3 350/3/3
f 359/5/3 350/5/3 358/5/3
f 360/5/3 352/5/3 351/5/3
f 360/3/3 351/3/3 359/3/3
f 361/2/3 353/2/3 352/2/3
f 361/5/3 352/5/3 360/5/3
f 362/4/3 354/4/3 353/4/3
f 362/2/3 353/2/3 361/2/3
f 363/3/3 355/3/3 354/3/3
f 363/4/3 354/4/3 362/4/3
f 364/3/3 355/3/3 363/3/3
f 365/3/4 366/3/4 373/3/4
f 373/3/4 366/3/4 374/3/4
f 367/3/4 368/3/4 375/3/4
f 375/3/4 368/3/4 376/3/4
f 369/2/4 370/2/4 377/2/4
f 377/2/4 370/2/4 378/2/4
f 371/3/4 372/3/4 379/3/4
f 379/3/4 372/3/4 380/3/4
f 381/5/4 382/5/4 389/5/4
f 389/5/4 382/5/4 390/5/4
f 383/4/4 384/4/4 391/4/4
f 391/4/4 384/4/4 392/4/4
f 385/4/4 386/4/4 393/4/4
f 393/4/4 386/4/4 394/4/4
f 387/5/4 388/5/4 395/5/4
f 395/5/4 388/5/4 396/5/4
f 397/9/4 398/9/4 400/9/4
f 400/9/4 398/9/4 401/9/4
f 399/9/4 400/9/4 402/9/4
f 402/9/4 400/9/4 403/9/4
f 404/2/4 405/2/4 406/2/4
f 406/2/4 405/2/4 407/2/4
f 408/4/4 409/4/4 410/4/4
f 410/4/4 409/4/4 411/4/4
f 412/9/4 413/9/4 414/9/4
f 414/9/4 413/9/4 415/9/4
f 416/1/4 417/1/4 418/1/4
f 418/1/4 417/1/4 419/1/4
f 420/5/4 421/5/4 422/5/4
f 422/5/4 421/5/4 423/5/4
f 424/5/4 425/5/4 432/5/4
f 432/5/4 425/5/4 433/5/4
f 426/5/4 427/5/4 434/5/4
f 434/5/4 427/5/4 435/5/4
f 428/5/4 429/5/4 436/5/4
f 436/5/4 429/5/4 437/5/4
f 430/4/4 431/4/4 438/4/4
f 438/4/4 431/4/4 439/4/4
f 440/5/4 441/5/4 449/5/4
f 441/3/4 442/3/4 450/3/4
f 449/5/4 441/5/4 450/5/4
f 442/5/4 443/5/4 451/5/4
f 450/3/4 442/3/4 451/3/4
f 443/3/4 444/3/4 452/3/4
f 451/5/4 443/5/4 452/5/4
f 444/5/4 445/5/4 453/5/4
f 452/3/4 444/3/4 453/3/4
f 445/2/4 446/2/4 454/2/4
f 453/5/4 445/5/4 454/5/4
f 446/4/4 447/4/4 455/4/4
f 454/2/4 446/2/4 455/2/4
f 447/3/4 448/3/4 456/3/4
f 455/4/4 447/4/4 456/4/4
f 450/3/4 451/3/4 457/3/4
f 457/3/4 451/3/4 458/3/4
f 452/3/4 453/3/4 459/3/4
f 459/3/4 453/3/4 460/3/4
f 454/2/4 455/2/4 461/2/4
f 461/2/4 455/2/4 462/2/4
f 456/3/4 448/3/4 463/3/4
f 463/3/4 448/3/4 464/3/4
f 467/5/5 466/5/5 465/5/5
f 468/5/5 466/5/5 467/5/5
f 469/5/5 466/5/5 468/5/5
f 470/9/5 468/9/5 467/9/5
f 471/9/5 468/9/5 470/9/5
f 472/9/5 468/9/5 471/9/5
f 473/8/5 471/8/5 470/8/5
f 474/8/5 471/8/5 473/8/5
f 475/7/5 474/7/5 473/7/5
f 476/7/5 474/7/5 475/7/5
f 479/6/5 476/6/5 475/6/5
f 480/6/5 476/6/5 479/6/5
f 481/7/5 480/7/5 479/7/5
f 483/1/5 482/1/5 481/1/5
f 484/9/5 478/9/5 477/9/5
f 485/7/5 481/7/5 479/7/5
f 486/1/5 483/1/5 481/1/5
f 486/7/5 481/7/5 485/7/5
f 487/9/5 484/9/5 483/9/5
f 487/1/5 483/1/5 486/1/5
f 488/9/5 478/9/5 484/9/5
f 488/9/5 484/9/5 487/9/5
f 489/8/5 486/8/5 485/8/5
f 489/1/5 487/1/5 486/1/5
f 490/1/5 487/1/5 489/1/5
f 491/8/5 489/8/5 485/8/5
f 492/8/5 489/8/5 491/8/5
f 494/9/5 492/9/5 491/9/5
f 494/9/5 493/9/5 492/9/5
f 495/9/5 493/9/5 494/9/5
f 497/5/5 495/5/5 494/5/5
f 497/5/5 496/5/5 495/5/5
f 498/5/5 496/5/5 497/5/5
f 499/5/5 497/5/5 494/5/5
f 500/5/5 497/5/5 499/5/5
f 503/3/5 502/3/5 501/3/5
f 504/3/5 502/3/5 503/3/5
f 507/4/5 506/4/5 505/4/5
f 508/4/5 506/4/5 507/4/5
f 511/3/5 510/3/5 509/3/5
f 512/3/5 510/3/5 511/3/5
f 515/4/5 514/4/5 513/4/5
f 516/4/5 514/4/5 515/4/5
f 519/2/5 518/2/5 517/2/5
f 520/2/5 518/2/5 519/2/5
f 523/5/5 522/5/5 521/5/5
f 524/5/5 522/5/5 523/5/5
f 527/9/5 526/9/5 525/9/5
f 528/9/5 526/9/5 527/9/5
f 531/9/5 530/9/5 529/9/5
f 532/9/5 530/9/5 531/9/5
f 535/2/5 534/2/5 533/2/5
f 536/2/5 534/2/5 535/2/5
f 539/4/5 538/4/5 537/4/5
f 540/4/5 538/4/5 539/4/5
f 543/5/5 542/5/5 541/5/5
f 544/5/5 542/5/5 543/5/5
f 547/3/5 546/3/5 545/3/5
f 548/3/5 546/3/5 547/3/5
f 549/9/6 550/9/6 552/9/6
f 551/9/6 552/9/6 553/9/6
f 552/9/6 550/9/6 554/9/6
f 553/9/6 552/9/6 554/9/6
f 555/1/6 556/1/6 557/1/6
f 557/1/6 556/1/6 558/1/6
f 558/1/6 556/1/6 559/1/6
f 560/5/6 561/5/6 562/5/6
f 562/5/6 561/5/6 563/5/6
f 564/3/6 565/3/6 566/3/6
f 566/3/6 565/3/6 567/3/6
f 568/4/6 569/4/6 570/4/6
f 570/4/6 569/4/6 571/4/6
f 572/3/6 573/3/6 574/3/6
f 574/3/6 573/3/6 575/3/6
f 576/4/6 577/4/6 578/4/6
f 578/4/6 577/4/6 579/4/6
f 580/2/6 581/2/6 582/2/6
f 582/2/6 581/2/6 583/2/6
f 584/8/6 585/8/6 586/8/6
f 586/8/6 585/8/6 587/8/6
f 588/5/6 589/5/6 590/5/6
f 590/5/6 589/5/6 591/5/6
f 592/3/6 593/3/6 594/3/6
f 594/3/6 593/3/6 595/3/6
f 592/3/6 594/3/6 596/3/6
f 596/3/6 594/3/6 597/3/6
f 596/2/6 597/2/6 599/2/6
f 597/2/6 598/2/6 599/2/6
f 599/2/6 598/2/6 600/2/6
f 596/2/6 599/2/6 601/2/6
f 601/2/6 599/2/6 602/2/6
f 601/4/6 602/4/6 604/4/6
f 602/4/6 603/4/6 604/4/6
f 604/4/6 603/4/6 605/4/6
f 601/4/6 604/4/6 606/4/6
f 606/4/6 604/4/6 607/4/6
f 606/5/6 607/5/6 609/5/6
f 607/5/6 608/5/6 609/5/6
f 609/5/6 608/5/6 610/5/6
f 606/5/6 609/5/6 611/5/6
f 611/5/6 609/5/6 612/5/6
f 611/3/6 612/3/6 614/3/6
f 612/3/6 613/3/6 614/3/6
f 614/3/6 613/3/6 615/3/6
