# MagicaVoxel @ Ephtracy

# material
mtllib modern_glass_wall_t_corner.mtl
usemtl palette

# normals
vn -1 0 0
vn 1 0 0
vn 0 0 1
vn 0 0 -1
vn 0 -1 0
vn 0 1 0

# texcoords
vt 0.689453 0.5
vt 0.748047 0.5
vt 0.935547 0.5

# verts
v -32 0 -28
v -32 0 -30
v -32 59 32
v -32 59 -28
v -32 60 32
v -32 60 -28
v -32 60 -30
v -32 60 -32
v -32 64 -28
v -32 64 -32
v -31 0 -30
v -31 0 -31
v -31 60 -30
v -31 60 -31
v 28 0 32
v 28 0 31
v 28 59 32
v 28 59 31
v 28 60 32
v 28 60 31
v 28 64 32
v 28 64 31
v 29 0 31
v 29 0 -30
v 29 59 31
v 29 59 -30
v 29 60 31
v 29 60 -29
v 29 64 31
v 29 64 -29
v -31 0 -28
v -31 0 -30
v -31 59 -28
v -31 59 -30
v -31 60 -28
v -31 60 -29
v -31 64 -28
v -31 64 -29
v 30 0 32
v 30 0 31
v 30 60 32
v 30 60 31
v 31 0 31
v 31 0 30
v 31 0 -30
v 31 0 -31
v 31 60 31
v 31 60 30
v 31 60 -30
v 31 60 -31
v 32 60 32
v 32 60 -32
v 32 64 32
v 32 64 -32
v -32 59 32
v -32 60 32
v 28 0 32
v 28 59 32
v 28 60 32
v 28 64 32
v 30 0 32
v 30 60 32
v 32 60 32
v 32 64 32
v 30 0 31
v 30 60 31
v 31 0 31
v 31 60 31
v -32 0 -28
v -32 59 -28
v -32 60 -28
v -32 64 -28
v -31 0 -28
v -31 59 -28
v -31 60 -28
v -31 64 -28
v -31 60 -29
v -31 64 -29
v 29 60 -29
v 29 64 -29
v -31 0 -30
v -31 59 -30
v -30 0 -30
v -30 59 -30
v 29 0 -30
v 29 59 -30
v 28 0 31
v 28 59 31
v 28 60 31
v 28 64 31
v 29 0 31
v 29 59 31
v 29 60 31
v 29 64 31
v -32 0 -30
v -32 60 -30
v -31 0 -30
v -31 60 -30
v -31 0 -31
v -31 60 -31
v -30 0 -31
v -30 60 -31
v 30 0 -31
v 30 60 -31
v 31 0 -31
v 31 60 -31
v -32 60 -32
v -32 64 -32
v 32 60 -32
v 32 64 -32
v 28 0 32
v 30 0 32
v 28 0 31
v 29 0 31
v 30 0 31
v 31 0 31
v 30 0 30
v 31 0 30
v -32 0 -28
v -31 0 -28
v -32 0 -30
v -31 0 -30
v -30 0 -30
v 29 0 -30
v 30 0 -30
v 31 0 -30
v -31 0 -31
v -30 0 -31
v 30 0 -31
v 31 0 -31
v -32 59 32
v 28 59 32
v 28 59 31
v 29 59 31
v -32 59 -28
v -31 59 -28
v -31 59 -30
v -30 59 -30
v 29 59 -30
v 30 60 32
v 32 60 32
v 30 60 31
v 31 60 31
v 31 60 30
v -32 60 -30
v -31 60 -30
v 31 60 -30
v -31 60 -31
v -30 60 -31
v 30 60 -31
v 31 60 -31
v -32 60 -32
v 32 60 -32
v -32 60 32
v 28 60 32
v 28 60 31
v 29 60 31
v -32 60 -28
v -31 60 -28
v -31 60 -29
v 29 60 -29
v 28 64 32
v 32 64 32
v 28 64 31
v 29 64 31
v -32 64 -28
v -31 64 -28
v -31 64 -29
v 29 64 -29
v -32 64 -32
v 32 64 -32

# faces
f 4/3/1 2/3/1 1/3/1
f 5/3/1 4/3/1 3/3/1
f 6/3/1 2/3/1 4/3/1
f 6/3/1 4/3/1 5/3/1
f 7/3/1 2/3/1 6/3/1
f 9/3/1 8/3/1 7/3/1
f 9/3/1 7/3/1 6/3/1
f 10/3/1 8/3/1 9/3/1
f 13/2/1 12/2/1 11/2/1
f 14/2/1 12/2/1 13/2/1
f 17/3/1 16/3/1 15/3/1
f 18/3/1 16/3/1 17/3/1
f 21/3/1 20/3/1 19/3/1
f 22/3/1 20/3/1 21/3/1
f 25/1/1 24/1/1 23/1/1
f 26/1/1 24/1/1 25/1/1
f 29/3/1 28/3/1 27/3/1
f 30/3/1 28/3/1 29/3/1
f 31/3/2 32/3/2 33/3/2
f 33/3/2 32/3/2 34/3/2
f 35/3/2 36/3/2 37/3/2
f 37/3/2 36/3/2 38/3/2
f 39/3/2 40/3/2 41/3/2
f 41/3/2 40/3/2 42/3/2
f 43/2/2 44/2/2 47/2/2
f 44/1/2 45/1/2 48/1/2
f 47/2/2 44/2/2 48/2/2
f 45/2/2 46/2/2 49/2/2
f 48/1/2 45/1/2 49/1/2
f 49/2/2 46/2/2 50/2/2
f 51/3/2 52/3/2 53/3/2
f 53/3/2 52/3/2 54/3/2
f 58/3/3 56/3/3 55/3/3
f 59/3/3 56/3/3 58/3/3
f 61/3/3 58/3/3 57/3/3
f 61/3/3 60/3/3 59/3/3
f 61/3/3 59/3/3 58/3/3
f 62/3/3 60/3/3 61/3/3
f 63/3/3 60/3/3 62/3/3
f 64/3/3 60/3/3 63/3/3
f 67/2/3 66/2/3 65/2/3
f 68/2/3 66/2/3 67/2/3
f 73/3/3 70/3/3 69/3/3
f 74/3/3 70/3/3 73/3/3
f 75/3/3 72/3/3 71/3/3
f 76/3/3 72/3/3 75/3/3
f 79/3/3 78/3/3 77/3/3
f 80/3/3 78/3/3 79/3/3
f 83/2/3 82/2/3 81/2/3
f 84/2/3 82/2/3 83/2/3
f 85/1/3 84/1/3 83/1/3
f 86/1/3 84/1/3 85/1/3
f 87/3/4 88/3/4 91/3/4
f 91/3/4 88/3/4 92/3/4
f 89/3/4 90/3/4 93/3/4
f 93/3/4 90/3/4 94/3/4
f 95/3/4 96/3/4 97/3/4
f 97/3/4 96/3/4 98/3/4
f 99/2/4 100/2/4 101/2/4
f 101/2/4 100/2/4 102/2/4
f 101/1/4 102/1/4 103/1/4
f 103/1/4 102/1/4 104/1/4
f 103/2/4 104/2/4 105/2/4
f 105/2/4 104/2/4 106/2/4
f 107/3/4 108/3/4 109/3/4
f 109/3/4 108/3/4 110/3/4
f 113/3/5 112/3/5 111/3/5
f 114/3/5 112/3/5 113/3/5
f 115/3/5 112/3/5 114/3/5
f 117/2/5 116/2/5 115/2/5
f 117/1/5 115/1/5 114/1/5
f 118/2/5 116/2/5 117/2/5
f 121/3/5 120/3/5 119/3/5
f 122/3/5 120/3/5 121/3/5
f 124/1/5 117/1/5 114/1/5
f 124/1/5 118/1/5 117/1/5
f 125/1/5 118/1/5 124/1/5
f 126/1/5 118/1/5 125/1/5
f 127/2/5 123/2/5 122/2/5
f 128/1/5 124/1/5 123/1/5
f 128/2/5 123/2/5 127/2/5
f 128/1/5 125/1/5 124/1/5
f 129/2/5 126/2/5 125/2/5
f 129/1/5 125/1/5 128/1/5
f 130/2/5 126/2/5 129/2/5
f 133/3/5 132/3/5 131/3/5
f 135/3/5 133/3/5 131/3/5
f 135/3/5 134/3/5 133/3/5
f 136/3/5 134/3/5 135/3/5
f 137/3/5 134/3/5 136/3/5
f 138/3/5 134/3/5 137/3/5
f 139/3/5 134/3/5 138/3/5
f 142/3/5 141/3/5 140/3/5
f 143/3/5 141/3/5 142/3/5
f 144/3/5 141/3/5 143/3/5
f 147/3/5 141/3/5 144/3/5
f 148/3/5 146/3/5 145/3/5
f 151/3/5 141/3/5 147/3/5
f 152/3/5 150/3/5 149/3/5
f 152/3/5 151/3/5 150/3/5
f 152/3/5 148/3/5 145/3/5
f 152/3/5 149/3/5 148/3/5
f 153/3/5 141/3/5 151/3/5
f 153/3/5 151/3/5 152/3/5
f 154/3/6 155/3/6 156/3/6
f 154/3/6 156/3/6 158/3/6
f 156/3/6 157/3/6 158/3/6
f 158/3/6 157/3/6 159/3/6
f 159/3/6 157/3/6 160/3/6
f 160/3/6 157/3/6 161/3/6
f 162/3/6 163/3/6 164/3/6
f 164/3/6 163/3/6 165/3/6
f 166/3/6 167/3/6 168/3/6
f 165/3/6 163/3/6 169/3/6
f 166/3/6 168/3/6 170/3/6
f 168/3/6 169/3/6 170/3/6
f 169/3/6 163/3/6 171/3/6
f 170/3/6 169/3/6 171/3/6
