# MagicaVoxel @ Ephtracy

# material
mtllib modern_glass_door_b.mtl
usemtl palette

# normals
vn -1 0 0
vn 1 0 0
vn 0 0 1
vn 0 0 -1
vn 0 -1 0
vn 0 1 0

# texcoords
vt 0.689453 0.5
vt 0.748047 0.5
vt 0.935547 0.5

# verts
v 28 0 32
v 28 0 31
v 28 0 -31
v 28 0 -32
v 28 64 32
v 28 64 31
v 28 64 -31
v 28 64 -32
v 29 0 31
v 29 0 -31
v 29 4 1
v 29 4 -1
v 29 64 31
v 29 64 1
v 29 64 -1
v 29 64 -31
v 30 4 32
v 30 4 31
v 30 4 1
v 30 4 -1
v 30 4 -31
v 30 4 -32
v 30 60 32
v 30 60 31
v 30 60 1
v 30 60 -1
v 30 60 -31
v 30 60 -32
v 31 4 31
v 31 4 30
v 31 4 2
v 31 4 1
v 31 4 -1
v 31 4 -2
v 31 4 -30
v 31 4 -31
v 31 60 31
v 31 60 30
v 31 60 2
v 31 60 1
v 31 60 -1
v 31 60 -2
v 31 60 -30
v 31 60 -31
v 32 0 32
v 32 0 -32
v 32 4 32
v 32 4 -32
v 32 60 32
v 32 60 -32
v 32 64 32
v 32 64 -32
v 28 0 32
v 28 64 32
v 30 4 32
v 30 60 32
v 32 0 32
v 32 4 32
v 32 60 32
v 32 64 32
v 30 4 31
v 30 60 31
v 31 4 31
v 31 60 31
v 30 4 -1
v 30 60 -1
v 31 4 -1
v 31 60 -1
v 28 0 -31
v 28 64 -31
v 29 0 -31
v 29 64 -31
v 28 0 31
v 28 64 31
v 29 0 31
v 29 64 31
v 30 4 1
v 30 60 1
v 31 4 1
v 31 60 1
v 30 4 -31
v 30 60 -31
v 31 4 -31
v 31 60 -31
v 28 0 -32
v 28 64 -32
v 30 4 -32
v 30 60 -32
v 32 0 -32
v 32 4 -32
v 32 60 -32
v 32 64 -32
v 28 0 32
v 32 0 32
v 28 0 31
v 29 0 31
v 30 0 31
v 31 0 31
v 30 0 30
v 31 0 30
v 30 0 -30
v 31 0 -30
v 28 0 -31
v 29 0 -31
v 30 0 -31
v 31 0 -31
v 28 0 -32
v 32 0 -32
v 30 60 32
v 32 60 32
v 30 60 31
v 31 60 31
v 31 60 30
v 31 60 2
v 30 60 1
v 31 60 1
v 30 60 -1
v 31 60 -1
v 31 60 -2
v 31 60 -30
v 30 60 -31
v 31 60 -31
v 30 60 -32
v 32 60 -32
v 30 4 32
v 32 4 32
v 30 4 31
v 31 4 31
v 31 4 30
v 31 4 2
v 30 4 1
v 31 4 1
v 30 4 -1
v 31 4 -1
v 31 4 -2
v 31 4 -30
v 30 4 -31
v 31 4 -31
v 30 4 -32
v 32 4 -32
v 28 64 32
v 32 64 32
v 28 64 31
v 29 64 31
v 30 64 31
v 31 64 31
v 30 64 30
v 31 64 30
v 30 64 2
v 31 64 2
v 29 64 1
v 30 64 1
v 31 64 1
v 29 64 -1
v 30 64 -1
v 31 64 -1
v 30 64 -2
v 31 64 -2
v 30 64 -30
v 31 64 -30
v 28 64 -31
v 29 64 -31
v 30 64 -31
v 31 64 -31
v 28 64 -32
v 32 64 -32

# faces
f 5/3/1 2/3/1 1/3/1
f 6/3/1 2/3/1 5/3/1
f 7/3/1 4/3/1 3/3/1
f 8/3/1 4/3/1 7/3/1
f 11/1/1 10/1/1 9/1/1
f 12/1/1 10/1/1 11/1/1
f 13/1/1 11/1/1 9/1/1
f 14/3/1 12/3/1 11/3/1
f 14/1/1 11/1/1 13/1/1
f 15/1/1 10/1/1 12/1/1
f 15/3/1 12/3/1 14/3/1
f 16/1/1 10/1/1 15/1/1
f 17/3/2 18/3/2 23/3/2
f 23/3/2 18/3/2 24/3/2
f 19/3/2 20/3/2 25/3/2
f 25/3/2 20/3/2 26/3/2
f 21/3/2 22/3/2 27/3/2
f 27/3/2 22/3/2 28/3/2
f 29/2/2 30/2/2 37/2/2
f 30/1/2 31/1/2 38/1/2
f 37/2/2 30/2/2 38/2/2
f 31/2/2 32/2/2 39/2/2
f 38/1/2 31/1/2 39/1/2
f 39/2/2 32/2/2 40/2/2
f 33/2/2 34/2/2 41/2/2
f 34/1/2 35/1/2 42/1/2
f 41/2/2 34/2/2 42/2/2
f 35/2/2 36/2/2 43/2/2
f 42/1/2 35/1/2 43/1/2
f 43/2/2 36/2/2 44/2/2
f 45/3/2 46/3/2 47/3/2
f 47/3/2 46/3/2 48/3/2
f 49/3/2 50/3/2 51/3/2
f 51/3/2 50/3/2 52/3/2
f 55/3/3 54/3/3 53/3/3
f 56/3/3 54/3/3 55/3/3
f 57/3/3 55/3/3 53/3/3
f 58/3/3 55/3/3 57/3/3
f 59/3/3 54/3/3 56/3/3
f 60/3/3 54/3/3 59/3/3
f 63/2/3 62/2/3 61/2/3
f 64/2/3 62/2/3 63/2/3
f 67/2/3 66/2/3 65/2/3
f 68/2/3 66/2/3 67/2/3
f 71/3/3 70/3/3 69/3/3
f 72/3/3 70/3/3 71/3/3
f 73/3/4 74/3/4 75/3/4
f 75/3/4 74/3/4 76/3/4
f 77/2/4 78/2/4 79/2/4
f 79/2/4 78/2/4 80/2/4
f 81/2/4 82/2/4 83/2/4
f 83/2/4 82/2/4 84/2/4
f 85/3/4 86/3/4 87/3/4
f 87/3/4 86/3/4 88/3/4
f 85/3/4 87/3/4 89/3/4
f 89/3/4 87/3/4 90/3/4
f 88/3/4 86/3/4 91/3/4
f 91/3/4 86/3/4 92/3/4
f 95/3/5 94/3/5 93/3/5
f 96/3/5 94/3/5 95/3/5
f 97/3/5 94/3/5 96/3/5
f 98/3/5 94/3/5 97/3/5
f 99/1/5 97/1/5 96/1/5
f 99/2/5 98/2/5 97/2/5
f 100/3/5 94/3/5 98/3/5
f 100/2/5 98/2/5 99/2/5
f 101/1/5 99/1/5 96/1/5
f 101/1/5 100/1/5 99/1/5
f 102/3/5 94/3/5 100/3/5
f 102/1/5 100/1/5 101/1/5
f 104/1/5 101/1/5 96/1/5
f 105/2/5 102/2/5 101/2/5
f 105/1/5 101/1/5 104/1/5
f 106/3/5 94/3/5 102/3/5
f 106/2/5 102/2/5 105/2/5
f 107/3/5 105/3/5 104/3/5
f 107/3/5 104/3/5 103/3/5
f 107/3/5 106/3/5 105/3/5
f 108/3/5 94/3/5 106/3/5
f 108/3/5 106/3/5 107/3/5
f 111/3/5 110/3/5 109/3/5
f 112/3/5 110/3/5 111/3/5
f 113/3/5 110/3/5 112/3/5
f 114/3/5 110/3/5 113/3/5
f 116/3/5 110/3/5 114/3/5
f 117/3/5 116/3/5 115/3/5
f 118/3/5 110/3/5 116/3/5
f 118/3/5 116/3/5 117/3/5
f 119/3/5 110/3/5 118/3/5
f 120/3/5 110/3/5 119/3/5
f 122/3/5 110/3/5 120/3/5
f 123/3/5 122/3/5 121/3/5
f 124/3/5 110/3/5 122/3/5
f 124/3/5 122/3/5 123/3/5
f 125/3/6 126/3/6 127/3/6
f 127/3/6 126/3/6 128/3/6
f 128/3/6 126/3/6 129/3/6
f 129/3/6 126/3/6 130/3/6
f 130/3/6 126/3/6 132/3/6
f 131/3/6 132/3/6 133/3/6
f 132/3/6 126/3/6 134/3/6
f 133/3/6 132/3/6 134/3/6
f 134/3/6 126/3/6 135/3/6
f 135/3/6 126/3/6 136/3/6
f 136/3/6 126/3/6 138/3/6
f 137/3/6 138/3/6 139/3/6
f 138/3/6 126/3/6 140/3/6
f 139/3/6 138/3/6 140/3/6
f 141/3/6 142/3/6 143/3/6
f 143/3/6 142/3/6 144/3/6
f 144/3/6 142/3/6 145/3/6
f 145/3/6 142/3/6 146/3/6
f 144/1/6 145/1/6 147/1/6
f 145/2/6 146/2/6 147/2/6
f 146/3/6 142/3/6 148/3/6
f 147/2/6 146/2/6 148/2/6
f 144/1/6 147/1/6 149/1/6
f 147/1/6 148/1/6 149/1/6
f 148/3/6 142/3/6 150/3/6
f 149/1/6 148/1/6 150/1/6
f 144/1/6 149/1/6 151/1/6
f 149/2/6 150/2/6 152/2/6
f 151/1/6 149/1/6 152/1/6
f 150/3/6 142/3/6 153/3/6
f 152/2/6 150/2/6 153/2/6
f 151/3/6 152/3/6 154/3/6
f 152/3/6 153/3/6 154/3/6
f 154/3/6 153/3/6 155/3/6
f 153/3/6 142/3/6 156/3/6
f 155/3/6 153/3/6 156/3/6
f 154/1/6 155/1/6 157/1/6
f 155/2/6 156/2/6 157/2/6
f 156/3/6 142/3/6 158/3/6
f 157/2/6 156/2/6 158/2/6
f 154/1/6 157/1/6 159/1/6
f 157/1/6 158/1/6 159/1/6
f 158/3/6 142/3/6 160/3/6
f 159/1/6 158/1/6 160/1/6
f 154/1/6 159/1/6 162/1/6
f 159/2/6 160/2/6 163/2/6
f 162/1/6 159/1/6 163/1/6
f 160/3/6 142/3/6 164/3/6
f 163/2/6 160/2/6 164/2/6
f 162/3/6 163/3/6 165/3/6
f 161/3/6 162/3/6 165/3/6
f 163/3/6 164/3/6 165/3/6
f 164/3/6 142/3/6 166/3/6
f 165/3/6 164/3/6 166/3/6
