# MagicaVoxel @ Ephtracy

# material
mtllib modern_glass_wall_b.mtl
usemtl palette

# normals
vn -1 0 0
vn 1 0 0
vn 0 0 1
vn 0 0 -1
vn 0 -1 0
vn 0 1 0

# texcoords
vt 0.689453 0.5
vt 0.748047 0.5
vt 0.935547 0.5

# verts
v 28 0 32
v 28 0 31
v 28 0 -31
v 28 0 -32
v 28 64 32
v 28 64 31
v 28 64 -31
v 28 64 -32
v 29 0 31
v 29 0 -31
v 29 64 31
v 29 64 -31
v 30 4 32
v 30 4 31
v 30 4 -31
v 30 4 -32
v 30 64 32
v 30 64 31
v 30 64 -31
v 30 64 -32
v 31 4 31
v 31 4 30
v 31 4 -30
v 31 4 -31
v 31 64 31
v 31 64 30
v 31 64 -30
v 31 64 -31
v 32 0 32
v 32 0 -32
v 32 4 32
v 32 4 -32
v 28 0 32
v 28 64 32
v 30 4 32
v 30 64 32
v 32 0 32
v 32 4 32
v 30 4 31
v 30 64 31
v 31 4 31
v 31 64 31
v 28 0 -31
v 28 64 -31
v 29 0 -31
v 29 64 -31
v 28 0 31
v 28 64 31
v 29 0 31
v 29 64 31
v 30 4 -31
v 30 64 -31
v 31 4 -31
v 31 64 -31
v 28 0 -32
v 28 64 -32
v 30 4 -32
v 30 64 -32
v 32 0 -32
v 32 4 -32
v 28 0 32
v 32 0 32
v 28 0 31
v 29 0 31
v 30 0 31
v 31 0 31
v 30 0 30
v 31 0 30
v 30 0 -30
v 31 0 -30
v 28 0 -31
v 29 0 -31
v 30 0 -31
v 31 0 -31
v 28 0 -32
v 32 0 -32
v 30 4 32
v 32 4 32
v 30 4 31
v 31 4 31
v 31 4 30
v 31 4 -30
v 30 4 -31
v 31 4 -31
v 30 4 -32
v 32 4 -32
v 28 64 32
v 30 64 32
v 28 64 31
v 29 64 31
v 30 64 31
v 31 64 31
v 30 64 30
v 31 64 30
v 30 64 -30
v 31 64 -30
v 28 64 -31
v 29 64 -31
v 30 64 -31
v 31 64 -31
v 28 64 -32
v 30 64 -32

# faces
f 5/3/1 2/3/1 1/3/1
f 6/3/1 2/3/1 5/3/1
f 7/3/1 4/3/1 3/3/1
f 8/3/1 4/3/1 7/3/1
f 11/1/1 10/1/1 9/1/1
f 12/1/1 10/1/1 11/1/1
f 13/3/2 14/3/2 17/3/2
f 17/3/2 14/3/2 18/3/2
f 15/3/2 16/3/2 19/3/2
f 19/3/2 16/3/2 20/3/2
f 21/2/2 22/2/2 25/2/2
f 22/1/2 23/1/2 26/1/2
f 25/2/2 22/2/2 26/2/2
f 23/2/2 24/2/2 27/2/2
f 26/1/2 23/1/2 27/1/2
f 27/2/2 24/2/2 28/2/2
f 29/3/2 30/3/2 31/3/2
f 31/3/2 30/3/2 32/3/2
f 35/3/3 34/3/3 33/3/3
f 36/3/3 34/3/3 35/3/3
f 37/3/3 35/3/3 33/3/3
f 38/3/3 35/3/3 37/3/3
f 41/2/3 40/2/3 39/2/3
f 42/2/3 40/2/3 41/2/3
f 45/3/3 44/3/3 43/3/3
f 46/3/3 44/3/3 45/3/3
f 47/3/4 48/3/4 49/3/4
f 49/3/4 48/3/4 50/3/4
f 51/2/4 52/2/4 53/2/4
f 53/2/4 52/2/4 54/2/4
f 55/3/4 56/3/4 57/3/4
f 57/3/4 56/3/4 58/3/4
f 55/3/4 57/3/4 59/3/4
f 59/3/4 57/3/4 60/3/4
f 63/3/5 62/3/5 61/3/5
f 64/3/5 62/3/5 63/3/5
f 65/3/5 62/3/5 64/3/5
f 66/3/5 62/3/5 65/3/5
f 67/1/5 65/1/5 64/1/5
f 67/2/5 66/2/5 65/2/5
f 68/3/5 62/3/5 66/3/5
f 68/2/5 66/2/5 67/2/5
f 69/1/5 67/1/5 64/1/5
f 69/1/5 68/1/5 67/1/5
f 70/3/5 62/3/5 68/3/5
f 70/1/5 68/1/5 69/1/5
f 72/1/5 69/1/5 64/1/5
f 73/2/5 70/2/5 69/2/5
f 73/1/5 69/1/5 72/1/5
f 74/3/5 62/3/5 70/3/5
f 74/2/5 70/2/5 73/2/5
f 75/3/5 73/3/5 72/3/5
f 75/3/5 72/3/5 71/3/5
f 75/3/5 74/3/5 73/3/5
f 76/3/5 62/3/5 74/3/5
f 76/3/5 74/3/5 75/3/5
f 77/3/6 78/3/6 79/3/6
f 79/3/6 78/3/6 80/3/6
f 80/3/6 78/3/6 81/3/6
f 81/3/6 78/3/6 82/3/6
f 82/3/6 78/3/6 84/3/6
f 83/3/6 84/3/6 85/3/6
f 84/3/6 78/3/6 86/3/6
f 85/3/6 84/3/6 86/3/6
f 87/3/6 88/3/6 89/3/6
f 89/3/6 88/3/6 90/3/6
f 90/3/6 88/3/6 91/3/6
f 91/2/6 92/2/6 93/2/6
f 90/1/6 91/1/6 93/1/6
f 93/2/6 92/2/6 94/2/6
f 90/1/6 93/1/6 95/1/6
f 93/1/6 94/1/6 95/1/6
f 95/1/6 94/1/6 96/1/6
f 90/1/6 95/1/6 98/1/6
f 95/2/6 96/2/6 99/2/6
f 98/1/6 95/1/6 99/1/6
f 99/2/6 96/2/6 100/2/6
f 97/3/6 98/3/6 101/3/6
f 98/3/6 99/3/6 101/3/6
f 101/3/6 99/3/6 102/3/6
