# MagicaVoxel @ Ephtracy

# material
mtllib modern_glass_wall_m.mtl
usemtl palette

# normals
vn -1 0 0
vn 1 0 0
vn 0 0 1
vn 0 0 -1
vn 0 -1 0
vn 0 1 0

# texcoords
vt 0.689453 0.5
vt 0.748047 0.5
vt 0.935547 0.5

# verts
v 28 0 32
v 28 0 31
v 28 0 -31
v 28 0 -32
v 28 64 32
v 28 64 31
v 28 64 -31
v 28 64 -32
v 29 0 31
v 29 0 -31
v 29 64 31
v 29 64 -31
v 30 0 32
v 30 0 31
v 30 0 -31
v 30 0 -32
v 30 64 32
v 30 64 31
v 30 64 -31
v 30 64 -32
v 31 0 31
v 31 0 30
v 31 0 -30
v 31 0 -31
v 31 64 31
v 31 64 30
v 31 64 -30
v 31 64 -31
v 28 0 32
v 28 64 32
v 30 0 32
v 30 64 32
v 30 0 31
v 30 64 31
v 31 0 31
v 31 64 31
v 28 0 -31
v 28 64 -31
v 29 0 -31
v 29 64 -31
v 28 0 31
v 28 64 31
v 29 0 31
v 29 64 31
v 30 0 -31
v 30 64 -31
v 31 0 -31
v 31 64 -31
v 28 0 -32
v 28 64 -32
v 30 0 -32
v 30 64 -32
v 28 0 32
v 30 0 32
v 28 0 31
v 29 0 31
v 30 0 31
v 31 0 31
v 30 0 30
v 31 0 30
v 30 0 -30
v 31 0 -30
v 28 0 -31
v 29 0 -31
v 30 0 -31
v 31 0 -31
v 28 0 -32
v 30 0 -32
v 28 64 32
v 30 64 32
v 28 64 31
v 29 64 31
v 30 64 31
v 31 64 31
v 30 64 30
v 31 64 30
v 30 64 -30
v 31 64 -30
v 28 64 -31
v 29 64 -31
v 30 64 -31
v 31 64 -31
v 28 64 -32
v 30 64 -32

# faces
f 5/3/1 2/3/1 1/3/1
f 6/3/1 2/3/1 5/3/1
f 7/3/1 4/3/1 3/3/1
f 8/3/1 4/3/1 7/3/1
f 11/1/1 10/1/1 9/1/1
f 12/1/1 10/1/1 11/1/1
f 13/3/2 14/3/2 17/3/2
f 17/3/2 14/3/2 18/3/2
f 15/3/2 16/3/2 19/3/2
f 19/3/2 16/3/2 20/3/2
f 21/2/2 22/2/2 25/2/2
f 22/1/2 23/1/2 26/1/2
f 25/2/2 22/2/2 26/2/2
f 23/2/2 24/2/2 27/2/2
f 26/1/2 23/1/2 27/1/2
f 27/2/2 24/2/2 28/2/2
f 31/3/3 30/3/3 29/3/3
f 32/3/3 30/3/3 31/3/3
f 35/2/3 34/2/3 33/2/3
f 36/2/3 34/2/3 35/2/3
f 39/3/3 38/3/3 37/3/3
f 40/3/3 38/3/3 39/3/3
f 41/3/4 42/3/4 43/3/4
f 43/3/4 42/3/4 44/3/4
f 45/2/4 46/2/4 47/2/4
f 47/2/4 46/2/4 48/2/4
f 49/3/4 50/3/4 51/3/4
f 51/3/4 50/3/4 52/3/4
f 55/3/5 54/3/5 53/3/5
f 56/3/5 54/3/5 55/3/5
f 57/3/5 54/3/5 56/3/5
f 59/2/5 58/2/5 57/2/5
f 59/1/5 57/1/5 56/1/5
f 60/2/5 58/2/5 59/2/5
f 61/1/5 59/1/5 56/1/5
f 61/1/5 60/1/5 59/1/5
f 62/1/5 60/1/5 61/1/5
f 64/1/5 61/1/5 56/1/5
f 65/2/5 62/2/5 61/2/5
f 65/1/5 61/1/5 64/1/5
f 66/2/5 62/2/5 65/2/5
f 67/3/5 64/3/5 63/3/5
f 67/3/5 65/3/5 64/3/5
f 68/3/5 65/3/5 67/3/5
f 69/3/6 70/3/6 71/3/6
f 71/3/6 70/3/6 72/3/6
f 72/3/6 70/3/6 73/3/6
f 73/2/6 74/2/6 75/2/6
f 72/1/6 73/1/6 75/1/6
f 75/2/6 74/2/6 76/2/6
f 72/1/6 75/1/6 77/1/6
f 75/1/6 76/1/6 77/1/6
f 77/1/6 76/1/6 78/1/6
f 72/1/6 77/1/6 80/1/6
f 77/2/6 78/2/6 81/2/6
f 80/1/6 77/1/6 81/1/6
f 81/2/6 78/2/6 82/2/6
f 79/3/6 80/3/6 83/3/6
f 80/3/6 81/3/6 83/3/6
f 83/3/6 81/3/6 84/3/6
