# MagicaVoxel @ Ephtracy

# material
mtllib modern_glass_wall_t.mtl
usemtl palette

# normals
vn -1 0 0
vn 1 0 0
vn 0 0 1
vn 0 0 -1
vn 0 -1 0
vn 0 1 0

# texcoords
vt 0.689453 0.5
vt 0.748047 0.5
vt 0.935547 0.5

# verts
v -32 59 32
v -32 59 -32
v -32 60 32
v -32 60 -32
v 28 0 32
v 28 0 31
v 28 0 -31
v 28 0 -32
v 28 59 32
v 28 59 31
v 28 59 -31
v 28 59 -32
v 28 60 32
v 28 60 31
v 28 60 -31
v 28 60 -32
v 28 64 32
v 28 64 31
v 28 64 -31
v 28 64 -32
v 29 0 31
v 29 0 -31
v 29 59 31
v 29 59 -31
v 29 60 31
v 29 60 -31
v 29 64 31
v 29 64 -31
v 30 0 32
v 30 0 31
v 30 0 -31
v 30 0 -32
v 30 60 32
v 30 60 31
v 30 60 -31
v 30 60 -32
v 31 0 31
v 31 0 30
v 31 0 -30
v 31 0 -31
v 31 60 31
v 31 60 30
v 31 60 -30
v 31 60 -31
v 32 60 32
v 32 60 -32
v 32 64 32
v 32 64 -32
v -32 59 32
v -32 60 32
v 28 0 32
v 28 59 32
v 28 60 32
v 28 64 32
v 30 0 32
v 30 60 32
v 32 60 32
v 32 64 32
v 30 0 31
v 30 60 31
v 31 0 31
v 31 60 31
v 28 0 -31
v 28 59 -31
v 28 60 -31
v 28 64 -31
v 29 0 -31
v 29 59 -31
v 29 60 -31
v 29 64 -31
v 28 0 31
v 28 59 31
v 28 60 31
v 28 64 31
v 29 0 31
v 29 59 31
v 29 60 31
v 29 64 31
v 30 0 -31
v 30 60 -31
v 31 0 -31
v 31 60 -31
v -32 59 -32
v -32 60 -32
v 28 0 -32
v 28 59 -32
v 28 60 -32
v 28 64 -32
v 30 0 -32
v 30 60 -32
v 32 60 -32
v 32 64 -32
v 28 0 32
v 30 0 32
v 28 0 31
v 29 0 31
v 30 0 31
v 31 0 31
v 30 0 30
v 31 0 30
v 30 0 -30
v 31 0 -30
v 28 0 -31
v 29 0 -31
v 30 0 -31
v 31 0 -31
v 28 0 -32
v 30 0 -32
v -32 59 32
v 28 59 32
v 28 59 31
v 29 59 31
v 28 59 -31
v 29 59 -31
v -32 59 -32
v 28 59 -32
v 30 60 32
v 32 60 32
v 30 60 31
v 31 60 31
v 31 60 30
v 31 60 -30
v 30 60 -31
v 31 60 -31
v 30 60 -32
v 32 60 -32
v -32 60 32
v 28 60 32
v 28 60 31
v 29 60 31
v 28 60 -31
v 29 60 -31
v -32 60 -32
v 28 60 -32
v 28 64 32
v 32 64 32
v 28 64 31
v 29 64 31
v 28 64 -31
v 29 64 -31
v 28 64 -32
v 32 64 -32

# faces
f 3/3/1 2/3/1 1/3/1
f 4/3/1 2/3/1 3/3/1
f 9/3/1 6/3/1 5/3/1
f 10/3/1 6/3/1 9/3/1
f 11/3/1 8/3/1 7/3/1
f 12/3/1 8/3/1 11/3/1
f 17/3/1 14/3/1 13/3/1
f 18/3/1 14/3/1 17/3/1
f 19/3/1 16/3/1 15/3/1
f 20/3/1 16/3/1 19/3/1
f 23/1/1 22/1/1 21/1/1
f 24/1/1 22/1/1 23/1/1
f 27/3/1 26/3/1 25/3/1
f 28/3/1 26/3/1 27/3/1
f 29/3/2 30/3/2 33/3/2
f 33/3/2 30/3/2 34/3/2
f 31/3/2 32/3/2 35/3/2
f 35/3/2 32/3/2 36/3/2
f 37/2/2 38/2/2 41/2/2
f 38/1/2 39/1/2 42/1/2
f 41/2/2 38/2/2 42/2/2
f 39/2/2 40/2/2 43/2/2
f 42/1/2 39/1/2 43/1/2
f 43/2/2 40/2/2 44/2/2
f 45/3/2 46/3/2 47/3/2
f 47/3/2 46/3/2 48/3/2
f 52/3/3 50/3/3 49/3/3
f 53/3/3 50/3/3 52/3/3
f 55/3/3 52/3/3 51/3/3
f 55/3/3 54/3/3 53/3/3
f 55/3/3 53/3/3 52/3/3
f 56/3/3 54/3/3 55/3/3
f 57/3/3 54/3/3 56/3/3
f 58/3/3 54/3/3 57/3/3
f 61/2/3 60/2/3 59/2/3
f 62/2/3 60/2/3 61/2/3
f 67/3/3 64/3/3 63/3/3
f 68/3/3 64/3/3 67/3/3
f 69/3/3 66/3/3 65/3/3
f 70/3/3 66/3/3 69/3/3
f 71/3/4 72/3/4 75/3/4
f 75/3/4 72/3/4 76/3/4
f 73/3/4 74/3/4 77/3/4
f 77/3/4 74/3/4 78/3/4
f 79/2/4 80/2/4 81/2/4
f 81/2/4 80/2/4 82/2/4
f 83/3/4 84/3/4 86/3/4
f 86/3/4 84/3/4 87/3/4
f 85/3/4 86/3/4 89/3/4
f 87/3/4 88/3/4 89/3/4
f 86/3/4 87/3/4 89/3/4
f 89/3/4 88/3/4 90/3/4
f 90/3/4 88/3/4 91/3/4
f 91/3/4 88/3/4 92/3/4
f 95/3/5 94/3/5 93/3/5
f 96/3/5 94/3/5 95/3/5
f 97/3/5 94/3/5 96/3/5
f 99/2/5 98/2/5 97/2/5
f 99/1/5 97/1/5 96/1/5
f 100/2/5 98/2/5 99/2/5
f 101/1/5 99/1/5 96/1/5
f 101/1/5 100/1/5 99/1/5
f 102/1/5 100/1/5 101/1/5
f 104/1/5 101/1/5 96/1/5
f 105/2/5 102/2/5 101/2/5
f 105/1/5 101/1/5 104/1/5
f 106/2/5 102/2/5 105/2/5
f 107/3/5 104/3/5 103/3/5
f 107/3/5 105/3/5 104/3/5
f 108/3/5 105/3/5 107/3/5
f 111/3/5 110/3/5 109/3/5
f 113/3/5 111/3/5 109/3/5
f 113/3/5 112/3/5 111/3/5
f 114/3/5 112/3/5 113/3/5
f 115/3/5 113/3/5 109/3/5
f 116/3/5 113/3/5 115/3/5
f 119/3/5 118/3/5 117/3/5
f 120/3/5 118/3/5 119/3/5
f 121/3/5 118/3/5 120/3/5
f 122/3/5 118/3/5 121/3/5
f 124/3/5 118/3/5 122/3/5
f 125/3/5 124/3/5 123/3/5
f 126/3/5 118/3/5 124/3/5
f 126/3/5 124/3/5 125/3/5
f 127/3/6 128/3/6 129/3/6
f 127/3/6 129/3/6 131/3/6
f 129/3/6 130/3/6 131/3/6
f 131/3/6 130/3/6 132/3/6
f 127/3/6 131/3/6 133/3/6
f 133/3/6 131/3/6 134/3/6
f 135/3/6 136/3/6 137/3/6
f 137/3/6 136/3/6 138/3/6
f 138/3/6 136/3/6 140/3/6
f 139/3/6 140/3/6 141/3/6
f 140/3/6 136/3/6 142/3/6
f 141/3/6 140/3/6 142/3/6
