# MagicaVoxel @ Ephtracy

# material
mtllib sidewalk_curb_corner_out.mtl
usemtl palette

# normals
vn -1 0 0
vn 1 0 0
vn 0 0 1
vn 0 0 -1
vn 0 -1 0
vn 0 1 0

# texcoords
vt 0.974609 0.5

# verts
v -32 0 32
v -32 0 -32
v -32 1 32
v -32 1 -28
v -32 2 -28
v -32 2 -32
v -31 1 31
v -31 1 -27
v -31 2 31
v -31 2 -27
v 28 1 32
v 28 1 -28
v 28 2 32
v 28 2 -28
v 27 1 31
v 27 1 -27
v 27 2 31
v 27 2 -27
v 32 0 32
v 32 0 -32
v 32 2 32
v 32 2 -32
v -32 0 32
v -32 1 32
v 28 1 32
v 28 2 32
v 32 0 32
v 32 2 32
v -31 1 31
v -31 2 31
v 27 1 31
v 27 2 31
v -32 1 -28
v -32 2 -28
v 28 1 -28
v 28 2 -28
v -31 1 -27
v -31 2 -27
v 27 1 -27
v 27 2 -27
v -32 0 -32
v -32 2 -32
v 32 0 -32
v 32 2 -32
v -32 0 32
v 32 0 32
v -32 0 -32
v 32 0 -32
v -32 1 32
v 28 1 32
v -31 1 31
v 27 1 31
v -31 1 -27
v 27 1 -27
v -32 1 -28
v 28 1 -28
v 28 2 32
v 32 2 32
v -31 2 31
v 27 2 31
v -31 2 -27
v 27 2 -27
v -32 2 -28
v 28 2 -28
v -32 2 -32
v 32 2 -32

# faces
f 3/1/1 2/1/1 1/1/1
f 4/1/1 2/1/1 3/1/1
f 5/1/1 2/1/1 4/1/1
f 6/1/1 2/1/1 5/1/1
f 9/1/1 8/1/1 7/1/1
f 10/1/1 8/1/1 9/1/1
f 13/1/1 12/1/1 11/1/1
f 14/1/1 12/1/1 13/1/1
f 15/1/2 16/1/2 17/1/2
f 17/1/2 16/1/2 18/1/2
f 19/1/2 20/1/2 21/1/2
f 21/1/2 20/1/2 22/1/2
f 25/1/3 24/1/3 23/1/3
f 27/1/3 25/1/3 23/1/3
f 27/1/3 26/1/3 25/1/3
f 28/1/3 26/1/3 27/1/3
f 31/1/3 30/1/3 29/1/3
f 32/1/3 30/1/3 31/1/3
f 35/1/3 34/1/3 33/1/3
f 36/1/3 34/1/3 35/1/3
f 37/1/4 38/1/4 39/1/4
f 39/1/4 38/1/4 40/1/4
f 41/1/4 42/1/4 43/1/4
f 43/1/4 42/1/4 44/1/4
f 47/1/5 46/1/5 45/1/5
f 48/1/5 46/1/5 47/1/5
f 49/1/6 50/1/6 51/1/6
f 51/1/6 50/1/6 52/1/6
f 49/1/6 51/1/6 53/1/6
f 52/1/6 50/1/6 54/1/6
f 49/1/6 53/1/6 55/1/6
f 53/1/6 54/1/6 55/1/6
f 54/1/6 50/1/6 56/1/6
f 55/1/6 54/1/6 56/1/6
f 59/1/6 60/1/6 61/1/6
f 61/1/6 60/1/6 62/1/6
f 57/1/6 58/1/6 64/1/6
f 63/1/6 64/1/6 65/1/6
f 64/1/6 58/1/6 66/1/6
f 65/1/6 64/1/6 66/1/6
